<svg width="20" height="32" viewBox="0 0 20 32" fill="none" xmlns="http://www.w3.org/2000/svg">
<path d="M10.3902 11.5594C10.3009 10.6041 10.3667 8.00177 12.8642 4.37562C13.0523 4.10234 13.0187 3.73377 12.7844 3.49947C11.7692 2.48431 11.1401 1.84315 10.699 1.394C10.1163 0.800484 9.85038 0.529884 9.46236 0.177403C9.20317 -0.0555221 8.81109 -0.0588909 8.54929 0.168053C4.20072 3.95198 -0.629934 11.7696 0.0676032 21.351V21.3516C0.478522 26.9758 4.582 31.0585 9.82488 31.0585C15.2054 31.0585 19.5828 26.6818 19.5828 21.3013C19.5828 16.1101 15.5089 11.8529 10.3902 11.5594ZM9.82488 29.6835C5.32327 29.6835 1.79577 26.1373 1.43862 21.2509V21.2516C0.654453 10.4752 7.05879 3.47864 8.99369 1.62631C9.18303 1.81228 9.39925 2.03248 9.71749 2.35678C10.0995 2.74618 10.6225 3.27858 11.4134 4.07216C8.38477 8.73898 8.95615 12.063 9.20654 12.539C9.32541 12.7653 9.56975 12.9184 9.82488 12.9184C14.4474 12.9184 18.2078 16.6788 18.2078 21.3013C18.2078 25.9231 14.4474 29.6835 9.82488 29.6835Z" fill="white"/>
</svg>
