<svg width="58" height="59" viewBox="0 0 58 59" fill="none" xmlns="http://www.w3.org/2000/svg">
<g clip-path="url(#clip0_102_2771)">
<path d="M33.2058 43.3603L28.1343 41.6118C26.9917 41.2176 26.0363 40.4763 25.3713 39.4676C25.0328 38.9537 24.2998 38.899 23.8879 39.3536L20.5831 43.0009H17.5444L14.7142 39.8378C15.0469 39.1951 15.286 38.5003 15.4166 37.7734C23.437 40.2032 31.6522 34.1958 31.6522 25.7188V19.1148C31.6522 18.694 31.3728 18.3242 30.9681 18.2094C28.8706 17.6136 27.2106 16.0639 26.414 13.9575C26.1912 13.368 25.4613 13.1595 24.961 13.5433C19.9764 17.3637 13.7887 19.0111 7.53677 18.1816C6.9748 18.107 6.47166 18.5442 6.47166 19.1148V25.7188C6.47166 29.1058 7.79752 32.2836 10.2048 34.6667C10.5743 35.0324 11.1703 35.0295 11.536 34.6599C11.9017 34.2904 11.8988 33.6944 11.5292 33.3287C9.48191 31.3019 8.35431 28.5993 8.35431 25.7188V20.1671C14.3342 20.713 20.2283 19.1654 25.1565 15.7319C26.1691 17.6214 27.7891 19.0524 29.7695 19.7954V25.7188C29.7695 33.5215 21.828 38.47 14.9522 35.6096C14.3333 35.352 13.6493 35.8076 13.6493 36.4788C13.6493 38.7943 12.1786 40.8571 9.9894 41.6119L4.91847 43.3602C1.97635 44.3798 3.05176e-05 47.1551 3.05176e-05 50.2696V56.5326C3.05176e-05 57.0524 0.42151 57.4739 0.941358 57.4739C1.46121 57.4739 1.88269 57.0524 1.88269 56.5326V50.2696C1.88269 47.954 3.35339 45.8909 5.54245 45.1361C5.54245 45.1361 10.8613 43.2975 10.9877 43.2458L12.2594 49.0177C12.4285 49.7851 13.4138 50.0207 13.9103 49.4074L15.3223 47.6633C15.6494 47.2592 15.587 46.6665 15.1828 46.3394C14.7789 46.0122 14.186 46.0748 13.859 46.4788L13.6772 46.7033L12.6978 42.2585C13.0248 42.0049 13.3285 41.7254 13.606 41.4228L16.4218 44.5699C16.6005 44.7695 16.8556 44.8836 17.1234 44.8836H20.5513L24.2136 49.4074C24.7073 50.0174 25.6946 49.7887 25.8644 49.0177L26.4996 46.1351C26.6115 45.6275 26.2906 45.1252 25.7829 45.0133C25.2754 44.9016 24.773 45.2223 24.6611 45.73L24.4465 46.7032L22.2394 43.9768L24.5361 41.442C25.3519 42.3221 26.3812 42.9986 27.5205 43.3914L30.4755 44.4104V56.5326C30.4755 57.0524 30.897 57.4739 31.4168 57.4739C31.9367 57.4739 32.3582 57.0524 32.3582 56.5326V45.0595C32.3582 45.0595 32.5771 45.135 32.5814 45.1365C34.7682 45.8976 36.2411 47.954 36.2411 50.2696V56.5326C36.2411 57.0524 36.6626 57.4739 37.1825 57.4739C37.7023 57.4739 38.1238 57.0524 38.1238 56.5326V50.2696C38.1238 47.1549 36.148 44.3799 33.2058 43.3603Z" fill="#ff6400"/>
<path d="M6.61895 35.4365C7.13256 35.5118 7.61135 35.1557 7.68665 34.6413C7.76196 34.127 7.4059 33.6488 6.89147 33.5736C5.98132 33.4404 5.29486 32.6404 5.29486 31.7127V13.6439C5.29486 7.70698 10.1247 2.8768 16.0614 2.8768H22.0624C27.9991 2.8768 32.8289 7.70698 32.8289 13.6439V31.7127C32.8289 32.6405 32.1425 33.4405 31.2323 33.5736C30.7179 33.6489 30.3619 34.127 30.4371 34.6413C30.512 35.1522 30.9857 35.5113 31.5048 35.4365C33.333 35.1689 34.7116 33.568 34.7116 31.7127V13.6439C34.7116 6.66882 29.0371 0.994141 22.0624 0.994141H16.0614C9.08664 0.994141 3.4122 6.66882 3.4122 13.6439V31.7127C3.4122 33.568 4.79078 35.1688 6.61895 35.4365Z" fill="#ff6400"/>
<path d="M26.976 51.1198H7.6484V48.8151C7.6484 48.2953 7.22692 47.8738 6.70707 47.8738C6.18723 47.8738 5.76575 48.2953 5.76575 48.8151V56.5325C5.76575 57.0523 6.18723 57.4738 6.70707 57.4738C7.22692 57.4738 7.6484 57.0523 7.6484 56.5325V53.0025H26.976C27.4958 53.0025 27.9173 52.581 27.9173 52.0612C27.9173 51.5413 27.4958 51.1198 26.976 51.1198Z" fill="#ff6400"/>
<path d="M57.1175 26.818C56.1533 25.6127 54.3981 25.4275 53.1996 26.3925C52.7751 26.7342 52.3731 27.0951 51.9928 27.4735C52.0543 27.1903 52.121 26.9084 52.1959 26.6287C52.7742 24.4669 50.9331 22.4338 48.7324 22.7438C47.9012 22.8617 47.1656 23.2972 46.6615 23.9702C46.2482 24.5218 45.8639 25.101 45.519 25.6917C45.2569 26.1406 45.4085 26.7172 45.8574 26.9792C46.3067 27.2415 46.8829 27.0896 47.1449 26.6408C47.4536 26.112 47.7979 25.5932 48.1682 25.0989C48.3701 24.8295 48.6642 24.6551 48.9965 24.6079C49.872 24.4829 50.6029 25.298 50.3769 26.1422C50.0066 27.5264 49.7852 28.9539 49.7143 30.3895C49.5742 30.6246 49.4398 30.8635 49.3123 31.107C49.0712 31.5675 49.2492 32.1363 49.7098 32.3775C50.1705 32.6187 50.7392 32.4407 50.9804 31.98C51.8115 30.3925 52.9552 29.006 54.3801 27.859C54.5691 27.7068 54.8069 27.6379 55.046 27.6638C55.6814 27.7334 56.0424 28.4333 55.7368 28.9776C54.7269 30.777 54.0553 32.7284 53.7315 34.792C53.427 34.752 53.8944 34.7641 46.5045 34.7641C45.7772 31.4829 43.9452 28.5334 41.2862 26.3927C40.0862 25.4266 38.3315 25.6137 37.3683 26.818C36.6576 27.7062 36.555 28.9155 37.107 29.8992C37.4766 30.5577 37.7999 31.2494 38.0681 31.9553C38.2527 32.4413 38.7965 32.6857 39.2823 32.5011C39.7682 32.3164 40.0126 31.7728 39.828 31.2869C39.5268 30.4941 39.1637 29.7172 38.7486 28.9779C38.574 28.6667 38.6091 28.2806 38.8383 27.9943C39.1464 27.6092 39.7126 27.543 40.1056 27.8594C42.3196 29.6419 43.8775 32.0636 44.5693 34.7645H41.167C39.424 34.7645 38.0059 36.1826 38.0059 37.9256C38.0059 42.0726 40.2165 45.3073 43.8892 46.6258V56.5327C43.8892 57.0525 44.3107 57.474 44.8306 57.474C45.3504 57.474 45.7719 57.0525 45.7719 56.5327V47.096C46.7078 47.2338 47.6355 47.242 48.5959 47.1138V56.5327C48.5959 57.0525 49.0174 57.474 49.5372 57.474C50.0571 57.474 50.4785 57.0525 50.4785 56.5327C50.4785 45.2589 50.4815 45.9466 50.4705 45.8591C50.4017 45.3066 49.8689 44.932 49.3226 45.0598C46.6676 45.6814 44.2175 45.082 42.5142 43.7579C40.7967 42.4223 39.8888 40.4055 39.8888 37.9252C39.8888 37.2203 40.4623 36.6468 41.1673 36.6468H53.3186C54.0236 36.6468 54.5971 37.2203 54.5971 37.9252C54.5971 39.5181 54.286 40.7903 53.6182 41.929C53.3552 42.3775 53.5055 42.9541 53.954 43.2171C54.4026 43.4802 54.9791 43.3299 55.2421 42.8813C56.075 41.4616 56.4797 39.8402 56.4797 37.9252C56.4797 37.0334 56.1079 36.2273 55.5119 35.652C55.7608 33.5989 56.3872 31.6655 57.3788 29.899C57.9307 28.9155 57.8281 27.7061 57.1175 26.818Z" fill="#ff6400"/>
<path d="M16.1203 21.821C15.6004 21.821 15.1789 22.2425 15.1789 22.7624V24.4097C15.1789 24.9295 15.6004 25.351 16.1203 25.351C16.6401 25.351 17.0616 24.9295 17.0616 24.4097V22.7624C17.0616 22.2425 16.6401 21.821 16.1203 21.821Z" fill="#ff6400"/>
<path d="M22.0034 25.351C22.5233 25.351 22.9448 24.9295 22.9448 24.4097V22.7624C22.9448 22.2425 22.5233 21.821 22.0034 21.821C21.4836 21.821 21.0621 22.2425 21.0621 22.7624V24.4097C21.0621 24.9295 21.4836 25.351 22.0034 25.351Z" fill="#ff6400"/>
<path d="M17.481 29.8733C17.1133 29.5058 16.5174 29.5058 16.1497 29.8733C15.7821 30.241 15.7821 30.8368 16.1497 31.2045C17.7552 32.8101 20.3681 32.8103 21.9739 31.2045C22.3415 30.8368 22.3415 30.241 21.9739 29.8733C21.6062 29.5058 21.0103 29.5058 20.6426 29.8733C19.7709 30.7449 18.3527 30.7449 17.481 29.8733Z" fill="#ff6400"/>
</g>
<defs>
<clipPath id="clip0_102_2771">
<rect width="57.7313" height="57.7313" fill="#ff6400" transform="translate(0 0.368164)"/>
</clipPath>
</defs>
</svg>
