<svg width="28" height="28" viewBox="0 0 28 28" fill="none" xmlns="http://www.w3.org/2000/svg">
<path d="M16.8214 6.40488C16.266 6.30229 15.7559 6.65671 15.6502 7.19884C15.5445 7.74096 15.9 8.27027 16.4403 8.37636C18.0669 8.69348 19.3229 9.95261 19.6413 11.5848V11.586C19.7319 12.0558 20.1455 12.3974 20.6219 12.3974C20.6858 12.3974 20.7497 12.3916 20.8148 12.3799C21.3551 12.2715 21.7106 11.7434 21.6049 11.2001C21.1297 8.76226 19.2532 6.87939 16.8214 6.40488Z" fill="#E77026"/>
<path d="M16.7488 2.3425C16.4885 2.3052 16.2271 2.38214 16.0191 2.5477C15.8053 2.71558 15.6717 2.95808 15.6427 3.22973C15.5811 3.77885 15.9773 4.27551 16.5257 4.3373C20.3076 4.75934 23.2472 7.70549 23.6725 11.4992C23.7294 12.0075 24.1558 12.3911 24.6647 12.3911C24.703 12.3911 24.7402 12.3888 24.7786 12.3841C25.0446 12.355 25.2817 12.2232 25.449 12.0134C25.6151 11.8035 25.6906 11.5424 25.6604 11.2754C25.1306 6.54195 21.4672 2.86831 16.7488 2.3425Z" fill="#E77026"/>
<path fill-rule="evenodd" clip-rule="evenodd" d="M12.8704 15.1345C17.5243 19.7871 18.5801 14.4045 21.5433 17.3656C24.4 20.2216 26.0419 20.7937 22.4225 24.4122C21.9691 24.7765 19.0886 29.16 8.96541 19.0396C-1.15902 8.918 3.22189 6.03452 3.58634 5.58127C7.21455 1.95282 7.77688 3.60428 10.6336 6.46022C13.5968 9.42258 8.21647 10.4818 12.8704 15.1345Z" fill="#E77026"/>
</svg>
