<svg width="25" height="25" viewBox="0 0 25 25" fill="none" xmlns="http://www.w3.org/2000/svg">
<mask id="mask0_580_2079" style="mask-type:alpha" maskUnits="userSpaceOnUse" x="14" y="2" width="10" height="9">
<path fill-rule="evenodd" clip-rule="evenodd" d="M14.9521 2.08374H23.8469V10.9721H14.9521V2.08374Z" fill="white"/>
</mask>
<g mask="url(#mask0_580_2079)">
<path fill-rule="evenodd" clip-rule="evenodd" d="M23.0654 10.9721C22.6727 10.9721 22.3352 10.6773 22.2904 10.2783C21.8956 6.76167 19.1643 4.0325 15.6466 3.64188C15.2185 3.59396 14.9091 3.20855 14.957 2.77938C15.0039 2.35125 15.3862 2.03563 15.8195 2.0898C20.0675 2.56167 23.3664 5.85646 23.8425 10.1033C23.8904 10.5325 23.582 10.919 23.1539 10.9669C23.1248 10.97 23.0945 10.9721 23.0654 10.9721Z" fill="white"/>
</g>
<path fill-rule="evenodd" clip-rule="evenodd" d="M19.3776 10.9832C19.011 10.9832 18.6849 10.7249 18.612 10.352C18.312 8.81029 17.1235 7.62175 15.5839 7.32279C15.1599 7.2405 14.8839 6.83112 14.9662 6.40717C15.0485 5.98321 15.4651 5.70612 15.8818 5.78946C18.0495 6.21029 19.7235 7.88321 20.1453 10.052C20.2276 10.477 19.9516 10.8863 19.5287 10.9686C19.4776 10.978 19.4276 10.9832 19.3776 10.9832Z" fill="white"/>
<mask id="mask1_580_2079" style="mask-type:alpha" maskUnits="userSpaceOnUse" x="2" y="2" width="22" height="22">
<path fill-rule="evenodd" clip-rule="evenodd" d="M2.08374 2.08325H23.4382V23.4379H2.08374V2.08325Z" fill="white"/>
</mask>
<g mask="url(#mask1_580_2079)">
<path fill-rule="evenodd" clip-rule="evenodd" d="M4.54112 5.27236C4.5432 5.27236 4.49112 5.32652 4.42549 5.39111C4.17341 5.6359 3.65154 6.14527 3.64633 7.2109C3.63799 8.70152 4.6182 11.4692 9.33799 16.188C14.0349 20.8838 16.7984 21.8755 18.2932 21.8755H18.3151C19.3807 21.8692 19.889 21.3474 20.1338 21.0963C20.2078 21.0203 20.2682 20.963 20.3109 20.9286C21.3495 19.8838 21.8807 19.1078 21.8755 18.6088C21.8692 18.1005 21.237 17.5005 20.363 16.6682C20.0849 16.4046 19.7828 16.1161 19.464 15.7974C18.637 14.9734 18.2297 15.114 17.3286 15.4307C16.0838 15.8671 14.3786 16.4651 11.7213 13.8057C9.06299 11.1484 9.65883 9.44319 10.0932 8.19736C10.4078 7.29736 10.5515 6.88798 9.72549 6.0609C9.40258 5.73798 9.11195 5.43173 8.84424 5.15048C8.01716 4.28173 7.42029 3.65361 6.91508 3.64631H6.90674C6.40779 3.64631 5.63279 4.17965 4.53591 5.27652C4.53904 5.2734 4.54008 5.27236 4.54112 5.27236ZM18.2932 23.438C15.6974 23.438 12.313 21.3713 8.23383 17.2932C4.13799 13.1984 2.0682 9.80361 2.08383 7.20256C2.0932 5.48381 2.99424 4.60361 3.33279 4.2734C3.35049 4.25152 3.41091 4.19215 3.43174 4.17131C4.92654 2.67652 5.95362 2.06194 6.93487 2.08381C8.09841 2.09944 8.92758 2.97131 9.97654 4.07444C10.2359 4.34631 10.5161 4.64319 10.8297 4.95569C12.3495 6.47652 11.9172 7.71715 11.5682 8.71298C11.189 9.79944 10.8609 10.7369 12.8255 12.7015C14.7901 14.6661 15.7265 14.338 16.812 13.9557C17.8088 13.6078 19.0463 13.1724 20.5692 14.6932C20.8786 15.0026 21.1703 15.2796 21.4411 15.5369C22.5484 16.5911 23.4234 17.4234 23.438 18.5901C23.4495 19.5838 22.8453 20.5984 21.3536 22.0901L20.6932 21.6421L21.2526 22.1869C20.9224 22.5255 20.0442 23.4276 18.3245 23.438H18.2932Z" fill="white"/>
</g>
</svg>
