<svg width="58" height="58" viewBox="0 0 58 58" fill="none" xmlns="http://www.w3.org/2000/svg">
<g clip-path="url(#clip0_102_2787)">
<path d="M28.6176 0.00218831C16.5765 0.170001 6.76532 10.0573 6.76532 22.1681C6.76532 29.7144 10.5515 36.6731 16.8936 40.783C17.6631 41.2816 18.303 41.9568 18.7435 42.7355L22.1064 48.6755C22.342 49.0917 22.8701 49.2384 23.2863 49.0028C23.7026 48.7671 23.8488 48.2386 23.6132 47.8228L20.2507 41.8824C19.6733 40.8623 18.8377 39.9796 17.8353 39.3299C11.9737 35.5315 8.395 29.0211 8.49895 21.8664C8.65795 10.8475 17.8207 1.73141 28.9334 1.73141C40.202 1.73141 49.3696 10.8995 49.3696 22.1681C49.3696 29.1228 45.8804 35.5376 40.0355 39.3273C39.03 39.9792 38.1931 40.8627 37.6161 41.8828L29.9658 55.3968C29.5113 56.1993 28.356 56.2002 27.901 55.3968L25.3195 50.8364C25.0838 50.4201 24.5557 50.2739 24.1395 50.5095C23.7233 50.7452 23.577 51.2733 23.8127 51.6895L26.3942 56.25C27.5116 58.2241 30.3539 58.2259 31.4726 56.25L39.1225 42.7355C39.5634 41.9572 40.2047 41.2811 40.9772 40.7799C47.3167 36.67 51.1011 29.7122 51.1011 22.1681C51.1011 9.84503 40.9917 -0.170029 28.6176 0.00218831Z" fill="#ff6400"/>
<path d="M13.3422 19.8627C12.8335 19.8186 12.3864 20.1961 12.3433 20.704C11.5064 30.4688 19.2271 38.7943 28.9334 38.7943C38.1147 38.7943 45.5848 31.3242 45.5848 22.1425C45.5848 8.44082 29.9007 0.664145 19.0007 8.77644C16.1699 10.8836 14.1135 13.7672 13.0542 17.1156C12.9004 17.6018 13.17 18.1207 13.6563 18.2744C14.1425 18.4281 14.6614 18.1586 14.8151 17.6723C16.7703 11.491 22.4442 7.33792 28.933 7.33792C37.0964 7.33792 43.7376 13.9791 43.7376 22.1425C43.7376 30.3059 37.0964 36.9471 28.933 36.9471C20.3129 36.9471 13.4387 29.5558 14.183 20.8621C14.2271 20.3538 13.8501 19.9063 13.3422 19.8627Z" fill="#ff6400"/>
<path d="M38.2573 20.9287C37.8922 21.2846 37.8847 21.8695 38.2406 22.2346C38.5965 22.5998 39.181 22.6077 39.5465 22.2514C41.4616 20.3839 40.2931 17.7561 38.1732 17.4482L33.9448 16.8338C33.6559 16.7919 33.4057 16.61 33.2767 16.348L31.3853 12.5165C30.3824 10.4846 27.4834 10.4855 26.4809 12.5165L24.5896 16.348C24.4605 16.61 24.2108 16.7919 23.9214 16.8338L19.693 17.4482C17.4242 17.7777 16.5702 20.5468 18.1774 22.1126L21.2368 25.0954C21.4073 25.2615 21.5051 25.4931 21.5051 25.731C21.5051 26.0278 20.729 30.0214 20.729 30.5672C20.729 32.6021 22.9048 33.9389 24.738 32.9751L28.5197 30.9869C28.7739 30.8535 29.0923 30.8535 29.346 30.9869C33.4502 33.1447 33.5365 33.2931 34.4011 33.2931C36.0731 33.2931 37.3887 31.7943 37.0963 30.0924C36.3193 25.564 36.3612 25.8464 36.3612 25.731C36.3612 25.2711 36.6479 25.0765 37.0663 24.6686C37.4319 24.3127 37.4394 23.7282 37.0831 23.3627C36.7276 22.9975 36.1427 22.99 35.7771 23.3459C35.3402 23.7723 34.5139 24.4286 34.5139 25.731C34.5139 26.0516 34.4897 25.8217 35.2759 30.4042C35.4005 31.1323 34.6394 31.6828 33.9875 31.3402C29.9014 29.1921 29.8068 29.0379 28.9329 29.0379C28.4916 29.0379 28.0515 29.1463 27.6604 29.352C23.5655 31.5045 23.7575 31.4463 23.4651 31.4463C22.9942 31.4463 22.4846 31.0204 22.5903 30.4042C23.3836 25.7812 23.3523 26.0494 23.3523 25.731C23.3523 24.9981 23.0511 24.2841 22.5265 23.7727C19.2195 20.5495 19.1966 20.6508 19.1966 20.1645C19.1966 19.7778 19.4583 19.3488 19.9586 19.2761L24.187 18.6617C25.078 18.5322 25.8475 17.9728 26.2461 17.1655L28.137 13.3339C28.4629 12.6733 29.4024 12.6724 29.7292 13.3339L31.6201 17.1655C32.0187 17.9728 32.7882 18.5322 33.6792 18.6617L37.9076 19.2761C38.6242 19.3801 38.9352 20.268 38.3996 20.79L38.2573 20.9287Z" fill="#ff6400"/>
</g>
<defs>
<clipPath id="clip0_102_2787">
<rect width="57.7313" height="57.7313" fill="#ff6400"/>
</clipPath>
</defs>
</svg>
