<svg width="59" height="45" viewBox="0 0 59 45" fill="none" xmlns="http://www.w3.org/2000/svg">
<path d="M0.720413 13.6779C0.723458 13.6814 0.726164 13.6854 0.729321 13.6888C0.729772 13.6892 0.73011 13.6898 0.730561 13.6903L28.4686 44.3601C28.6753 44.5886 28.9886 44.7313 29.3049 44.7313C29.6203 44.7313 29.933 44.5902 30.1413 44.3601L57.8793 13.6903C57.8798 13.6899 57.8801 13.6893 57.8806 13.6888C57.8837 13.6853 57.8863 13.6814 57.8895 13.6779C58.2509 13.2668 58.2603 12.663 57.9323 12.2423C57.9292 12.2383 57.9268 12.2336 57.9235 12.2296L48.903 0.953936C48.6891 0.686478 48.3651 0.530762 48.0225 0.530762C43.4258 0.530762 14.3276 0.530762 10.5874 0.530762C10.2448 0.530762 9.92088 0.686478 9.70687 0.953936L0.686361 12.2296C0.683091 12.2336 0.680836 12.2381 0.677566 12.2423C0.346175 12.6674 0.363088 13.2714 0.720413 13.6779ZM23.1779 2.78589H35.4319L40.8442 11.8064H17.7656L23.1779 2.78589ZM17.504 14.0615H41.1057L29.3048 40.8103L17.504 14.0615ZM43.5707 14.0615H54.5029L33.159 37.6612L43.5707 14.0615ZM15.0391 14.0615L25.4507 37.6612L4.10683 14.0615H15.0391ZM54.6969 11.8064H43.474L38.0617 2.78589H47.4805L54.6969 11.8064ZM11.1292 2.78589H20.5479L15.1356 11.8064H3.91277L11.1292 2.78589Z" fill="#ff6400"/>
</svg>
