<svg width="19" height="9" viewBox="0 0 19 9" fill="none" xmlns="http://www.w3.org/2000/svg">
<path d="M18.7748 1.16042L10.0729 8.79098C9.92008 8.92499 9.71508 9 9.50164 9C9.28819 9 9.0832 8.92499 8.93035 8.79098L0.225222 1.16042C0.153944 1.09799 0.0972939 1.02335 0.058611 0.940901C0.0199281 0.858453 9.81433e-08 0.76987 9.92105e-08 0.680379C1.00278e-07 0.590889 0.0199281 0.502305 0.058611 0.419857C0.097294 0.337409 0.153944 0.262769 0.225222 0.20034C0.371395 0.071904 0.567621 -2.19804e-07 0.771954 -2.17367e-07C0.976286 -2.14931e-07 1.17251 0.071904 1.31868 0.20034L9.50164 7.37589L17.683 0.20034C17.8291 0.0723448 18.0249 0.000719059 18.2289 0.000719061C18.4328 0.000719064 18.6287 0.0723448 18.7748 0.20034C18.8461 0.262769 18.9027 0.337409 18.9414 0.419857C18.9801 0.502305 19 0.590889 19 0.680379C19 0.76987 18.9801 0.858453 18.9414 0.940901C18.9027 1.02335 18.8461 1.09799 18.7748 1.16042Z" fill="#333333" fill-opacity="0.7"/>
</svg>
