<svg width="19" height="22" viewBox="0 0 19 22" fill="none" xmlns="http://www.w3.org/2000/svg">
<path d="M14.8145 13.7069V7.23589C14.8145 6.72478 14.4036 6.30493 13.8831 6.30493H2.14139C1.63008 6.30493 1.21008 6.71565 1.21008 7.23589V20.6799" stroke="#333333" stroke-miterlimit="10" stroke-linecap="round" stroke-linejoin="round"/>
<path d="M4.69788 20.6888V18.2793C4.69788 18.0055 4.92614 17.7773 5.20005 17.7773H10.7422" stroke="#333333" stroke-miterlimit="10" stroke-linecap="round" stroke-linejoin="round"/>
<path d="M7.91174 17.7773V20.6888" stroke="#333333" stroke-miterlimit="10" stroke-linecap="round" stroke-linejoin="round"/>
<path d="M5.23655 9.90989H3.94916C3.8122 9.90989 3.70264 9.80037 3.70264 9.66346V8.37656C3.70264 8.23966 3.8122 8.13013 3.94916 8.13013H5.23655C5.37351 8.13013 5.48307 8.23966 5.48307 8.37656V9.66346C5.48307 9.80037 5.37351 9.90989 5.23655 9.90989Z" fill="#F3A846"/>
<path d="M8.6605 9.90989H7.37311C7.23615 9.90989 7.12659 9.80037 7.12659 9.66346V8.37656C7.12659 8.23966 7.23615 8.13013 7.37311 8.13013H8.6605C8.79746 8.13013 8.90702 8.23966 8.90702 8.37656V9.66346C8.89789 9.80037 8.78833 9.90989 8.6605 9.90989Z" fill="#F3A846"/>
<path d="M12.0752 9.90989H10.7878C10.6508 9.90989 10.5413 9.80037 10.5413 9.66346V8.37656C10.5413 8.23966 10.6508 8.13013 10.7878 8.13013H12.0752C12.2121 8.13013 12.3217 8.23966 12.3217 8.37656V9.66346C12.3217 9.80037 12.2121 9.90989 12.0752 9.90989Z" fill="#F3A846"/>
<path d="M5.23655 13.0678H3.94916C3.8122 13.0678 3.70264 12.9583 3.70264 12.8214V11.5345C3.70264 11.3976 3.8122 11.2881 3.94916 11.2881H5.23655C5.37351 11.2881 5.48307 11.3976 5.48307 11.5345V12.8214C5.48307 12.9583 5.37351 13.0678 5.23655 13.0678Z" fill="#F3A846"/>
<path d="M8.6605 13.0678H7.37311C7.23615 13.0678 7.12659 12.9583 7.12659 12.8214V11.5345C7.12659 11.3976 7.23615 11.2881 7.37311 11.2881H8.6605C8.79746 11.2881 8.90702 11.3976 8.90702 11.5345V12.8214C8.89789 12.9583 8.78833 13.0678 8.6605 13.0678Z" fill="#F3A846"/>
<path d="M12.0752 13.0678H10.7878C10.6508 13.0678 10.5413 12.9583 10.5413 12.8214V11.5345C10.5413 11.3976 10.6508 11.2881 10.7878 11.2881H12.0752C12.2121 11.2881 12.3217 11.3976 12.3217 11.5345V12.8214C12.3217 12.9583 12.2121 13.0678 12.0752 13.0678Z" fill="#F3A846"/>
<path d="M5.23655 16.2258H3.94916C3.8122 16.2258 3.70264 16.1163 3.70264 15.9794V14.6925C3.70264 14.5556 3.8122 14.446 3.94916 14.446H5.23655C5.37351 14.446 5.48307 14.5556 5.48307 14.6925V15.9794C5.48307 16.1163 5.37351 16.2258 5.23655 16.2258Z" fill="#F3A846"/>
<path d="M8.6605 16.2258H7.37311C7.23615 16.2258 7.12659 16.1163 7.12659 15.9794V14.6925C7.12659 14.5556 7.23615 14.446 7.37311 14.446H8.6605C8.79746 14.446 8.90702 14.5556 8.90702 14.6925V15.9794C8.89789 16.1163 8.78833 16.2258 8.6605 16.2258Z" fill="#F3A846"/>
<path d="M8.0122 0.5L8.45046 1.38532C8.61481 1.71389 8.92525 1.94206 9.29047 1.99683L10.2674 2.14286L9.56438 2.82738C9.2996 3.08293 9.1809 3.44802 9.24481 3.8131L9.40916 4.78968L8.53264 4.33333C8.21308 4.15992 7.82046 4.15992 7.5009 4.33333L6.62437 4.78968L6.78872 3.8131C6.85264 3.45715 6.73394 3.08293 6.46916 2.82738L5.76611 2.14286L6.74307 1.99683C7.10829 1.94206 7.41872 1.71389 7.58307 1.38532L8.0122 0.5Z" fill="#E77026"/>
<path d="M13.4631 1.77783L13.7736 2.39847C13.8831 2.62664 14.1023 2.79093 14.3579 2.82743L15.0427 2.92783L14.5497 3.41156C14.3671 3.5941 14.2849 3.84966 14.3214 4.10521L14.4401 4.78973L13.8284 4.47029C13.6001 4.35164 13.3262 4.35164 13.107 4.47029L12.4953 4.78973L12.614 4.10521C12.6597 3.84966 12.5775 3.5941 12.3857 3.41156L11.8927 2.92783L12.5775 2.82743C12.8331 2.79093 13.0523 2.63577 13.1618 2.39847L13.4631 1.77783Z" fill="#E77026"/>
<path d="M2.57044 1.77783L2.88087 2.39847C2.99044 2.62664 3.20957 2.79093 3.46522 2.82743L4.15 2.92783L3.65696 3.41156C3.47435 3.5941 3.39218 3.84966 3.4287 4.10521L3.54739 4.78973L2.93565 4.47029C2.70739 4.35164 2.43348 4.35164 2.21435 4.47029L1.60261 4.78973L1.7213 4.10521C1.76696 3.84966 1.68478 3.5941 1.49304 3.41156L1 2.92783L1.68478 2.82743C1.94044 2.79093 2.15957 2.63577 2.26913 2.39847L2.57044 1.77783Z" fill="#E77026"/>
<path d="M17.4016 19.2313C18.2844 17.8034 17.842 15.9305 16.4135 15.0481C14.985 14.1656 13.1114 14.6079 12.2286 16.0358C11.3459 17.4638 11.7883 19.3367 13.2168 20.2191C14.6452 21.1015 16.5189 20.6593 17.4016 19.2313Z" stroke="#333333" stroke-miterlimit="10" stroke-linecap="round"/>
<path d="M13.3079 17.3667L14.5679 18.6262L16.5492 16.6548" stroke="#333333" stroke-miterlimit="10" stroke-linecap="round"/>
</svg>
