<svg width="25" height="25" viewBox="0 0 25 25" fill="none" xmlns="http://www.w3.org/2000/svg">
<mask id="mask0_580_2082" style="mask-type:alpha" maskUnits="userSpaceOnUse" x="2" y="1" width="22" height="23">
<path fill-rule="evenodd" clip-rule="evenodd" d="M2.08325 1.04199H23.4372V23.443H2.08325V1.04199Z" fill="white"/>
</mask>
<g mask="url(#mask0_580_2082)">
<path fill-rule="evenodd" clip-rule="evenodd" d="M14.2882 15.9285C15.5424 15.9285 16.5632 16.942 16.5632 18.1878V21.392C16.5632 21.6597 16.7778 21.8743 17.0528 21.8805H19.0382C20.6028 21.8805 21.8747 20.6243 21.8747 19.0805V9.99305C21.8674 9.4618 21.6143 8.9618 21.1799 8.62951L14.3122 3.15243C13.3903 2.42222 12.1007 2.42222 11.1757 3.15451L4.35488 8.62743C3.90384 8.97013 3.65072 9.47013 3.64551 10.0108V19.0805C3.64551 20.6243 4.91738 21.8805 6.48197 21.8805H8.48613C8.76842 21.8805 8.99759 21.6566 8.99759 21.3816C8.99759 21.3212 9.00488 21.2608 9.01738 21.2035V18.1878C9.01738 16.9493 10.032 15.9368 11.2768 15.9285H14.2882ZM19.0382 23.4431H17.034C15.8861 23.416 15.0007 22.5149 15.0007 21.392V18.1878C15.0007 17.8035 14.6809 17.491 14.2882 17.491H11.282C10.8976 17.493 10.5799 17.8066 10.5799 18.1878V21.3816C10.5799 21.4597 10.5695 21.5347 10.5476 21.6056C10.4351 22.6368 9.55384 23.4431 8.48613 23.4431H6.48197C4.05592 23.4431 2.08301 21.4858 2.08301 19.0805V10.0035C2.09342 8.96805 2.57051 8.02013 3.39447 7.39617L10.2018 1.93263C11.7007 0.745134 13.7893 0.745134 15.2851 1.93055L22.1413 7.3993C22.9466 8.01284 23.4236 8.95868 23.4372 9.98159V19.0805C23.4372 21.4858 21.4643 23.4431 19.0382 23.4431Z" fill="white"/>
</g>
</svg>
