<svg width="16" height="16" viewBox="0 0 16 16" fill="none" xmlns="http://www.w3.org/2000/svg">
<path d="M5.33265 11.3711L3.9549 9.99278C3.76933 9.80944 3.53455 9.68394 3.27906 9.63151C3.02357 9.57908 2.75837 9.60198 2.51563 9.69743L0.836495 10.3681C0.591202 10.4677 0.380871 10.6377 0.23201 10.8567C0.083149 11.0758 0.00242138 11.3339 0 11.5988V14.6753C0.00142765 14.8555 0.0392838 15.0335 0.111287 15.1986C0.18329 15.3638 0.287953 15.5126 0.418973 15.6362C0.549993 15.7598 0.704659 15.8556 0.873662 15.9178C1.04266 15.9801 1.22251 16.0074 1.40236 15.9983C13.1686 15.2661 15.5428 5.29791 15.9918 1.48294C16.0127 1.2956 15.9936 1.10596 15.9359 0.926515C15.8783 0.747064 15.7832 0.581865 15.6572 0.441784C15.5311 0.301703 15.3768 0.189915 15.2044 0.113775C15.0321 0.0376351 14.8455 -0.00113167 14.6571 2.51474e-05H11.6863C11.4212 0.000810161 11.1624 0.0809193 10.9432 0.230049C10.724 0.379178 10.5544 0.590508 10.4562 0.836857L9.78576 2.51667C9.68719 2.75854 9.66204 3.02409 9.71346 3.28017C9.76487 3.53624 9.89056 3.77149 10.0748 3.95652L11.4526 5.33483C11.4526 5.33483 10.6592 10.7065 5.33265 11.3711Z" fill="white"/>
</svg>
