<svg width="58" height="58" viewBox="0 0 58 58" fill="none" xmlns="http://www.w3.org/2000/svg">
<g clip-path="url(#clip0_580_2852)">
<path d="M33.2058 42.9919L28.1343 41.2434C26.9917 40.8492 26.0363 40.1079 25.3713 39.0992C25.0328 38.5853 24.2998 38.5306 23.8879 38.9852L20.5831 42.6325H17.5444L14.7142 39.4694C15.0469 38.8267 15.286 38.1319 15.4166 37.405C23.437 39.8348 31.6522 33.8274 31.6522 25.3504V18.7464C31.6522 18.3256 31.3728 17.9558 30.9681 17.8409C28.8706 17.2452 27.2106 15.6955 26.414 13.5891C26.1912 12.9996 25.4613 12.7911 24.961 13.1749C19.9764 16.9953 13.7887 18.6427 7.53677 17.8132C6.9748 17.7386 6.47166 18.1758 6.47166 18.7464V25.3504C6.47166 28.7374 7.79752 31.9152 10.2048 34.2983C10.5743 34.664 11.1703 34.6611 11.536 34.2915C11.9017 33.922 11.8988 33.326 11.5292 32.9603C9.48191 30.9335 8.35431 28.2308 8.35431 25.3504V19.7987C14.3342 20.3446 20.2283 18.797 25.1565 15.3635C26.1691 17.253 27.7891 18.684 29.7695 19.427V25.3504C29.7695 33.1531 21.828 38.1016 14.9522 35.2412C14.3333 34.9836 13.6493 35.4392 13.6493 36.1104C13.6493 38.4259 12.1786 40.4887 9.9894 41.2435L4.91847 42.9918C1.97635 44.0114 3.05176e-05 46.7867 3.05176e-05 49.9012V56.1642C3.05176e-05 56.684 0.42151 57.1055 0.941358 57.1055C1.46121 57.1055 1.88269 56.684 1.88269 56.1642V49.9012C1.88269 47.5856 3.35339 45.5224 5.54245 44.7677C5.54245 44.7677 10.8613 42.9291 10.9877 42.8774L12.2594 48.6493C12.4285 49.4167 13.4138 49.6523 13.9103 49.039L15.3223 47.2949C15.6494 46.8908 15.587 46.2981 15.1828 45.971C14.7789 45.6438 14.186 45.7064 13.859 46.1104L13.6772 46.3349L12.6978 41.8901C13.0248 41.6365 13.3285 41.357 13.606 41.0544L16.4218 44.2015C16.6005 44.4011 16.8556 44.5152 17.1234 44.5152H20.5513L24.2136 49.039C24.7073 49.649 25.6946 49.4203 25.8644 48.6493L26.4996 45.7667C26.6115 45.2591 26.2906 44.7568 25.7829 44.6449C25.2754 44.5332 24.773 44.8539 24.6611 45.3616L24.4465 46.3348L22.2394 43.6084L24.5361 41.0736C25.3519 41.9536 26.3812 42.6302 27.5205 43.023L30.4755 44.042V56.1642C30.4755 56.684 30.897 57.1055 31.4168 57.1055C31.9367 57.1055 32.3582 56.684 32.3582 56.1642V44.6911C32.3582 44.6911 32.5771 44.7666 32.5814 44.7681C34.7682 45.5292 36.2411 47.5856 36.2411 49.9012V56.1642C36.2411 56.684 36.6626 57.1055 37.1825 57.1055C37.7023 57.1055 38.1238 56.684 38.1238 56.1642V49.9012C38.1238 46.7865 36.148 44.0115 33.2058 42.9919Z" fill="#E77026"/>
<path d="M6.61895 35.0682C7.13256 35.1435 7.61135 34.7874 7.68665 34.273C7.76196 33.7587 7.4059 33.2805 6.89147 33.2053C5.98132 33.0721 5.29486 32.2721 5.29486 31.3444V13.2756C5.29486 7.3387 10.1247 2.50851 16.0614 2.50851H22.0624C27.9991 2.50851 32.8289 7.3387 32.8289 13.2756V31.3444C32.8289 32.2722 32.1425 33.0722 31.2323 33.2053C30.7179 33.2806 30.3619 33.7587 30.4371 34.273C30.512 34.7839 30.9857 35.143 31.5048 35.0682C33.333 34.8006 34.7116 33.1997 34.7116 31.3444V13.2756C34.7116 6.30053 29.0371 0.625854 22.0624 0.625854H16.0614C9.08664 0.625854 3.4122 6.30053 3.4122 13.2756V31.3444C3.4122 33.1997 4.79078 34.8005 6.61895 35.0682Z" fill="#E77026"/>
<path d="M26.976 50.7516H7.6484V48.4469C7.6484 47.927 7.22692 47.5056 6.70707 47.5056C6.18723 47.5056 5.76575 47.927 5.76575 48.4469V56.1642C5.76575 56.6841 6.18723 57.1056 6.70707 57.1056C7.22692 57.1056 7.6484 56.6841 7.6484 56.1642V52.6343H26.976C27.4958 52.6343 27.9173 52.2128 27.9173 51.6929C27.9173 51.1731 27.4958 50.7516 26.976 50.7516Z" fill="#E77026"/>
<path d="M57.1175 26.4499C56.1533 25.2445 54.3981 25.0593 53.1996 26.0244C52.7752 26.3661 52.3731 26.727 51.9928 27.1054C52.0543 26.8222 52.121 26.5402 52.1959 26.2605C52.7742 24.0988 50.9331 22.0656 48.7324 22.3757C47.9012 22.4936 47.1657 22.9291 46.6615 23.602C46.2482 24.1536 45.8639 24.7329 45.519 25.3236C45.2569 25.7725 45.4086 26.349 45.8575 26.6111C46.3067 26.8733 46.8829 26.7214 47.145 26.2727C47.4536 25.7439 47.7979 25.2251 48.1682 24.7308C48.3701 24.4613 48.6643 24.2869 48.9965 24.2397C49.872 24.1148 50.6029 24.9299 50.3769 25.774C50.0066 27.1582 49.7853 28.5857 49.7143 30.0214C49.5742 30.2565 49.4398 30.4953 49.3124 30.7388C49.0713 31.1993 49.2492 31.7681 49.7098 32.0093C50.1705 32.2506 50.7392 32.0725 50.9804 31.6119C51.8115 30.0243 52.9552 28.6379 54.3801 27.4909C54.5691 27.3386 54.8069 27.2698 55.046 27.2956C55.6814 27.3652 56.0424 28.0652 55.7368 28.6094C54.7269 30.4089 54.0554 32.3602 53.7315 34.4238C53.427 34.3838 53.8944 34.396 46.5045 34.396C45.7772 31.1147 43.9453 28.1652 41.2862 26.0245C40.0862 25.0585 38.3315 25.2456 37.3683 26.4499C36.6576 27.338 36.555 28.5474 37.107 29.5311C37.4766 30.1895 37.7999 30.8813 38.0681 31.5872C38.2527 32.0731 38.7966 32.3175 39.2823 32.1329C39.7682 31.9483 40.0126 31.4047 39.828 30.9187C39.5268 30.126 39.1637 29.349 38.7487 28.6097C38.574 28.2985 38.6091 27.9125 38.8383 27.6262C39.1464 27.2411 39.7126 27.1748 40.1056 27.4912C42.3196 29.2737 43.8775 31.6954 44.5694 34.3963H41.1671C39.4241 34.3963 38.006 35.8144 38.006 37.5574C38.006 41.7044 40.2165 44.9392 43.8893 46.2576V56.1645C43.8893 56.6844 44.3107 57.1058 44.8306 57.1058C45.3504 57.1058 45.7719 56.6844 45.7719 56.1645V46.7278C46.7078 46.8656 47.6355 46.8738 48.5959 46.7456V56.1645C48.5959 56.6844 49.0174 57.1058 49.5372 57.1058C50.0571 57.1058 50.4785 56.6844 50.4785 56.1645C50.4785 44.8907 50.4815 45.5785 50.4705 45.4909C50.4017 44.9385 49.8689 44.5638 49.3226 44.6916C46.6676 45.3132 44.2175 44.7139 42.5142 43.3898C40.7968 42.0541 39.8888 40.0373 39.8888 37.5571C39.8888 36.8521 40.4623 36.2786 41.1673 36.2786H53.3187C54.0236 36.2786 54.5971 36.8521 54.5971 37.5571C54.5971 39.1499 54.286 40.4221 53.6182 41.5609C53.3552 42.0093 53.5055 42.586 53.9541 42.849C54.4026 43.1121 54.9792 42.9617 55.2421 42.5131C56.075 41.0934 56.4798 39.4721 56.4798 37.5571C56.4798 36.6653 56.1079 35.8591 55.5119 35.2839C55.7608 33.2307 56.3873 31.2973 57.3788 29.5308C57.9307 28.5474 57.8281 27.3379 57.1175 26.4499Z" fill="#E77026"/>
<path d="M16.1203 21.4527C15.6004 21.4527 15.1789 21.8742 15.1789 22.394V24.0414C15.1789 24.5612 15.6004 24.9827 16.1203 24.9827C16.6401 24.9827 17.0616 24.5612 17.0616 24.0414V22.394C17.0616 21.8742 16.6401 21.4527 16.1203 21.4527Z" fill="#E77026"/>
<path d="M22.0034 24.9827C22.5233 24.9827 22.9448 24.5612 22.9448 24.0414V22.394C22.9448 21.8742 22.5233 21.4527 22.0034 21.4527C21.4836 21.4527 21.0621 21.8742 21.0621 22.394V24.0414C21.0621 24.5612 21.4836 24.9827 22.0034 24.9827Z" fill="#E77026"/>
<path d="M17.481 29.5051C17.1133 29.1376 16.5174 29.1376 16.1497 29.5051C15.7821 29.8728 15.7821 30.4687 16.1497 30.8364C17.7552 32.4419 20.3681 32.4422 21.9739 30.8364C22.3415 30.4687 22.3415 29.8728 21.9739 29.5051C21.6062 29.1376 21.0103 29.1376 20.6426 29.5051C19.7709 30.3768 18.3527 30.3768 17.481 29.5051Z" fill="#E77026"/>
</g>
<defs>
<clipPath id="clip0_580_2852">
<rect width="57.7313" height="57.7313" fill="white"/>
</clipPath>
</defs>
</svg>
