<svg width="48" height="34" viewBox="0 0 48 34" fill="none" xmlns="http://www.w3.org/2000/svg">
<path d="M46.3158 0.585205H1.68418C0.755567 0.585205 0 1.34077 0 2.26939V28.3524C0 29.281 0.755567 30.0365 1.68418 30.0365H19.3948V31.7306H10.2454C9.78038 31.7306 9.40333 32.1077 9.40333 32.5727C9.40333 33.0378 9.78038 33.4148 10.2454 33.4148H37.9296C38.3947 33.4148 38.7717 33.0378 38.7717 32.5727C38.7717 32.1077 38.3947 31.7306 37.9296 31.7306H28.6666V30.0365H46.3158C47.2444 30.0365 48 29.281 48 28.3524V2.26939C48 1.34067 47.2444 0.585205 46.3158 0.585205ZM26.9824 31.7305H21.079V30.0364H26.9824V31.7305ZM39.0767 28.3524L20.8455 10.1212C20.5166 9.79233 19.9835 9.79233 19.6546 10.1212C19.3257 10.45 19.3257 10.9831 19.6546 11.312L36.6949 28.3522H1.68418V2.26939H10.6119L16.2863 7.94372C16.4507 8.10814 16.6662 8.19035 16.8817 8.19035C17.0973 8.19035 17.3128 8.10814 17.4772 7.94372C17.8061 7.61489 17.8061 7.08174 17.4772 6.7529L12.9938 2.26949H46.3159L46.316 28.3525H39.0767V28.3524Z" fill="#333333"/>
<path d="M22.7103 27.5497H25.2892C25.7542 27.5497 26.1313 27.1726 26.1313 26.7076C26.1313 26.2425 25.7542 25.8655 25.2892 25.8655H22.7103C22.2452 25.8655 21.8682 26.2425 21.8682 26.7076C21.8682 27.1726 22.2452 27.5497 22.7103 27.5497Z" fill="#333333"/>
</svg>
