<svg id="e2Fj3UoLWZv1" xmlns="http://www.w3.org/2000/svg" xmlns:xlink="http://www.w3.org/1999/xlink" viewBox="0 0 1400 1400" shape-rendering="geometricPrecision" text-rendering="geometricPrecision"><g transform="matrix(.800965 0 0 0.767436-68.922428-657.99716)"><path d="M1262.4,1963.2v-525.37c0-18.742849-7.445568-36.71804-20.698764-49.971236s-31.228387-20.698764-49.971236-20.698764h-894.73c-18.742849,0-36.71804,7.445568-49.971236,20.698764s-20.698764,31.228387-20.698764,49.971236v1025.28" fill="none" stroke="#354254" stroke-width="34.79" stroke-linecap="round" stroke-linejoin="round"/><path d="M491.66,2463.11v-183.38c-.000001-21.214875,17.195125-38.414478,38.41-38.42h281.93" fill="none" stroke="#354254" stroke-width="34.79" stroke-linecap="round" stroke-linejoin="round"/><rect width="135.25" height="135.25" rx="18.66" ry="18.66" transform="translate(416.16 1506.33)" fill="#f36e41"/><rect width="135.25" height="135.25" rx="18.66" ry="18.66" transform="translate(676.76 1506.33)" fill="#f36e41"/><rect width="135.25" height="135.25" rx="18.66" ry="18.66" transform="translate(937.36 1506.33)" fill="#f36e41"/><rect width="135.25" height="135.25" rx="18.66" ry="18.66" transform="translate(416.16 1747)" fill="#f36e41"/><rect width="135.25" height="135.25" rx="18.66" ry="18.66" transform="translate(676.76 1747)" fill="#f36e41"/><rect width="135.25" height="135.25" rx="18.66" ry="18.66" transform="translate(937.36 1747)" fill="#f36e41"/><rect width="135.25" height="135.25" rx="18.66" ry="18.66" transform="translate(416.16 1987.67)" fill="#f36e41"/><path d="M744.38,924.08l33.29,67.44c12.326201,24.989492,36.16459,42.309162,63.74,46.31l74.42,10.82L862,1101.14c-19.952267,19.448009-29.057973,47.468153-24.35,74.93l12.72,74.13-66.57-35c-24.664356-12.96063-54.125644-12.96063-78.79,0l-66.57,35l12.71-74.13c4.715847-27.460543-4.386823-55.482856-24.34-74.93l-53.85-52.49l74.42-10.82c27.574738-4.002491,51.412435-21.321658,63.74-46.31Z" fill="#2bbfc7"/><path d="M1159.28,1021.41l23.35,47.31c8.646699,17.531052,25.366342,29.684673,44.71,32.5l52.21,7.58-37.77,36.83c-14.002461,13.641779-20.390474,33.303246-17.08,52.57l8.91,52-46.7-24.55c-17.299592-9.100125-37.970408-9.100125-55.27,0l-46.7,24.55l8.92-52c3.299808-19.265984-3.086622-38.922575-17.08-52.57L1039,1108.8l52.21-7.58c19.346029-2.815548,36.06863-14.968601,44.72-32.5Z" fill="#2bbfc7"/><path d="M329.49,1021.41l23.35,47.31c8.648644,17.533696,25.372628,29.687754,44.72,32.5l52.21,7.58L412,1145.63c-13.997917,13.644604-20.385138,33.303631-17.08,52.57l8.92,52-46.7-24.55c-17.303118-9.100168-37.976882-9.100168-55.28,0l-46.69,24.55l8.91-52c3.306916-19.266498-3.080569-38.926337-17.08-52.57l-37.79-36.83l52.22-7.58c19.343658-2.815327,36.063301-14.968948,44.71-32.5Z" fill="#2bbfc7"/><path d="M1033.86,2184.62c.012135,22.915512-13.782497,43.581363-34.950188,52.35916s-45.538785,3.938471-61.746792-12.260953-21.060242-40.567951-12.29366-61.740289s29.425124-34.977915,52.34064-34.977918c31.275219-.000004,56.633438,25.344785,56.65,56.62Z" fill="none" stroke="#354254" stroke-width="34.79" stroke-linecap="round" stroke-miterlimit="10"/><rect width="896.77" height="559.67" rx="105.1" ry="105.1" transform="translate(814.01 2055.3)" fill="none" stroke="#354254" stroke-width="34.79" stroke-linecap="round" stroke-miterlimit="10"/><rect width="152.73" height="113.3" rx="39.05" ry="39.05" transform="translate(1453.8 2127.97)" fill="none" stroke="#354254" stroke-width="34.79" stroke-linecap="round" stroke-miterlimit="10"/><path d="M1094.49,2241.27c31.286931,0,56.65-25.363069,56.65-56.65s-25.363069-56.65-56.65-56.65" fill="none" stroke="#354254" stroke-width="34.79" stroke-linecap="round" stroke-miterlimit="10"/><line x1="942.41" y1="2492.89" x2="1041.18" y2="2492.89" fill="none" stroke="#354254" stroke-width="34.79" stroke-linecap="round" stroke-miterlimit="10"/><line x1="1122.81" y1="2492.89" x2="1221.58" y2="2492.89" fill="none" stroke="#354254" stroke-width="34.79" stroke-linecap="round" stroke-miterlimit="10"/><line x1="1303.22" y1="2492.89" x2="1401.99" y2="2492.89" fill="none" stroke="#354254" stroke-width="34.79" stroke-linecap="round" stroke-miterlimit="10"/><line x1="1483.62" y1="2492.89" x2="1582.39" y2="2492.89" fill="none" stroke="#354254" stroke-width="34.79" stroke-linecap="round" stroke-miterlimit="10"/></g></svg>
