<svg width="49" height="46" viewBox="0 0 49 46" fill="none" xmlns="http://www.w3.org/2000/svg">
<path d="M46.1 24.6001H45.3V7.8001C45.3 3.80007 42.1001 0.600098 38.1 0.600098C34.5591 0.600098 32.0124 3.22566 31.7275 7.07269C29.8685 7.42407 28.5 9.02513 28.5 11.0001C28.5 11.4801 28.82 11.8 29.3 11.8H35.7C36.18 11.8 36.5 11.4801 36.5 11.0001C36.5 9.04697 35.1618 7.45922 33.3343 7.08441C33.5734 4.54229 35.1002 2.20004 38.1 2.20004C41.22 2.20004 43.7 4.68 43.7 7.8V24.6H19.6227C19.2608 22.7549 17.6653 21.4 15.7001 21.4C14.9001 20.44 13.7801 19.8 12.5001 19.8C10.9801 19.8 9.62009 20.68 8.98006 21.96C8.34003 21.64 7.62003 21.4 6.90003 21.4C4.93475 21.4 3.33931 22.7549 2.97744 24.6H2.9C1.53997 24.6 0.5 25.64 0.5 27C0.5 28.36 1.53997 29.4 2.9 29.4H3.86141L6.02 37.96C6.66003 40.44 8.9 42.2001 11.46 42.2001H12.1001L11.0601 44.2801C10.8201 44.6801 10.9801 45.1601 11.3801 45.3201C11.46 45.4 11.6201 45.4 11.7 45.4C12.02 45.4 12.26 45.24 12.42 45L13.82 42.2001H36.02L37.38 44.92C37.5401 45.24 37.7801 45.4 38.1 45.4C38.2601 45.4 38.34 45.4 38.42 45.24C38.74 45.08 38.9 44.6 38.74 44.2L37.7379 42.1958C40.2147 42.1078 42.3566 40.3779 42.98 38.04L45.1587 29.4H46.1C47.46 29.4 48.5 28.36 48.5 27C48.5 25.6401 47.46 24.6001 46.1 24.6001ZM34.82 10.2001H30.26C30.58 9.2401 31.54 8.60007 32.58 8.60007C33.6201 8.60007 34.5 9.2401 34.82 10.2001ZM6.90003 23.0001C7.62003 23.0001 8.26006 23.32 8.82003 23.8801C8.98006 24.1201 9.30003 24.2001 9.62 24.1201C9.93997 24.0401 10.1 23.8001 10.18 23.4801C10.42 22.2801 11.38 21.4 12.58 21.4C13.46 21.4 14.26 21.8001 14.66 22.6C14.82 22.92 15.22 23.08 15.54 23.0001C15.62 23.0001 15.7001 23.0001 15.78 23.0001C16.82 23.0001 17.7 23.6401 18.02 24.6001H4.65997C4.98003 23.6401 5.85997 23.0001 6.90003 23.0001ZM41.54 37.5601C41.06 39.3201 39.46 40.6001 37.62 40.6001H11.54C9.69997 40.6001 8.10003 39.3202 7.62003 37.5601L5.54 29.4001H43.46L41.54 37.5601ZM46.1 27.8001H44.5H4.50003H2.9C2.42 27.8001 2.10003 27.4801 2.10003 27.0001C2.10003 26.5201 2.42 26.2001 2.9 26.2001H3.69997H18.8999H46.1C46.58 26.2001 46.9 26.5201 46.9 27.0001C46.9 27.4801 46.58 27.8001 46.1 27.8001Z" fill="#E77026"/>
<path d="M29.3 15.4001C29.78 15.4001 30.0999 15.0801 30.0999 14.6001V14.2001C30.0999 13.7201 29.78 13.4001 29.3 13.4001C28.82 13.4001 28.5 13.7201 28.5 14.2001V14.6001C28.5 15.0801 28.82 15.4001 29.3 15.4001Z" fill="#E77026"/>
<path d="M29.3 19.0801C29.78 19.0801 30.0999 18.68 30.0999 18.2801V17.4001C30.0999 16.9201 29.78 16.6001 29.3 16.6001C28.82 16.6001 28.5 16.9201 28.5 17.4001V18.2801C28.5 18.76 28.82 19.0801 29.3 19.0801Z" fill="#E77026"/>
<path d="M29.3 22.2002C29.78 22.2002 30.0999 21.8802 30.0999 21.4002V21.0002C30.0999 20.5202 29.78 20.2002 29.3 20.2002C28.82 20.2002 28.5 20.5202 28.5 21.0002V21.4002C28.5 21.8801 28.82 22.2002 29.3 22.2002Z" fill="#E77026"/>
<path d="M32.5002 15.4001C32.9802 15.4001 33.3001 15.0801 33.3001 14.6001V14.2001C33.3001 13.7201 32.9802 13.4001 32.5002 13.4001C32.0202 13.4001 31.7002 13.7201 31.7002 14.2001V14.6001C31.7002 15.0801 32.0202 15.4001 32.5002 15.4001Z" fill="#E77026"/>
<path d="M31.7002 18.2801C31.7002 18.7601 32.0202 19.0801 32.5002 19.0801C32.9802 19.0801 33.3001 18.68 33.3001 18.2801V17.4001C33.3001 16.9201 32.9802 16.6001 32.5002 16.6001C32.0202 16.6001 31.7002 16.9201 31.7002 17.4001V18.2801Z" fill="#E77026"/>
<path d="M31.7002 21.4002C31.7002 21.8802 32.0202 22.2002 32.5002 22.2002C32.9802 22.2002 33.3001 21.8802 33.3001 21.4002V21.0002C33.3001 20.5202 32.9802 20.2002 32.5002 20.2002C32.0202 20.2002 31.7002 20.5202 31.7002 21.0002V21.4002Z" fill="#E77026"/>
<path d="M35.7004 15.4001C36.1804 15.4001 36.5003 15.0801 36.5003 14.6001V14.2001C36.5003 13.7201 36.1804 13.4001 35.7004 13.4001C35.2204 13.4001 34.9004 13.7201 34.9004 14.2001V14.6001C34.9003 15.0801 35.2204 15.4001 35.7004 15.4001Z" fill="#E77026"/>
<path d="M34.9004 18.2801C34.9004 18.7601 35.2204 19.0801 35.7004 19.0801C36.1804 19.0801 36.5004 18.6801 36.5004 18.2801V17.4001C36.5004 16.9201 36.1805 16.6001 35.7005 16.6001C35.2205 16.6001 34.9005 16.9201 34.9005 17.4001V18.2801H34.9004Z" fill="#E77026"/>
<path d="M34.9004 21.4002C34.9004 21.8802 35.2204 22.2002 35.7004 22.2002C36.1804 22.2002 36.5003 21.8802 36.5003 21.4002V21.0002C36.5003 20.5202 36.1804 20.2002 35.7004 20.2002C35.2204 20.2002 34.9004 20.5202 34.9004 21.0002V21.4002Z" fill="#E77026"/>
</svg>
