<svg width="9" height="13" viewBox="0 0 9 13" fill="none" xmlns="http://www.w3.org/2000/svg">
<path d="M0 0.5V1.5H1V3.5C1.00065 4.10454 1.15785 4.69861 1.45629 5.22435C1.75474 5.75008 2.18425 6.18957 2.703 6.5C2.18425 6.81043 1.75474 7.24992 1.45629 7.77565C1.15785 8.30139 1.00065 8.89546 1 9.5V11.5H0V12.5H9V11.5H8V9.5C7.99935 8.89546 7.84215 8.30139 7.54371 7.77565C7.24526 7.24992 6.81575 6.81043 6.297 6.5C6.81575 6.18957 7.24526 5.75008 7.54371 5.22435C7.84215 4.69861 7.99935 4.10454 8 3.5V1.5H9V0.5H0ZM2 1.5H7V3.5C7 4.8865 5.8865 6 4.5 6C3.1135 6 2 4.8865 2 3.5V1.5ZM2.5 2.5V3.5C2.5 4.605 3.395 5.5 4.5 5.5C5.605 5.5 6.5 4.605 6.5 3.5V2.5H2.5ZM4.5 7C5.8865 7 7 8.1135 7 9.5V11.5H2V9.5C2 8.1135 3.1135 7 4.5 7Z" fill="#E77026"/>
</svg>
