<svg width="18" height="19" viewBox="0 0 18 19" fill="none" xmlns="http://www.w3.org/2000/svg">
<g clip-path="url(#clip0_714_15575)">
<path d="M8.48055 13.82C8.34517 13.7206 8.15465 13.7497 8.05516 13.8851L8.01758 13.9363C7.91819 14.0716 7.94712 14.2618 8.08234 14.3614C8.13665 14.4015 8.19993 14.4208 8.26262 14.4208C8.35589 14.4208 8.44796 14.3781 8.50759 14.2973L8.54573 14.2454C8.64519 14.11 8.61601 13.9195 8.48055 13.82Z" fill="#E77026"/>
<path d="M8.55963 16.7152L7.77694 15.292L8.5077 14.2968C8.60723 14.1613 8.57801 13.9708 8.44252 13.8713C8.30706 13.7718 8.11659 13.801 8.01713 13.9365L7.17134 15.0884C7.1012 15.1839 7.09291 15.3114 7.14996 15.4152L8.02634 17.0085V17.0085C8.08178 17.1092 8.18588 17.1662 8.29328 17.1662C8.34289 17.1662 8.39316 17.154 8.43967 17.1285C8.58691 17.0475 8.64063 16.8625 8.55963 16.7152Z" fill="#E77026"/>
<path d="M10.828 15.0886L9.98565 13.9413C9.9158 13.8462 9.79742 13.8 9.68162 13.8229C9.56585 13.8457 9.47371 13.9334 9.44509 14.0478C9.42312 14.1357 9.44143 14.2287 9.49505 14.3017L10.2222 15.2922L9.44488 16.7057C9.4202 16.7506 9.40723 16.8012 9.40723 16.8525C9.40723 16.9914 9.5013 17.1127 9.63585 17.1472C9.66105 17.1538 9.68647 17.1569 9.71157 17.1569C9.82052 17.1569 9.92378 17.0981 9.97823 16.9992L10.8493 15.4154C10.9065 15.3115 10.8981 15.184 10.828 15.0886Z" fill="#E77026"/>
<path d="M11.3101 10.3059C11.21 10.2534 11.089 10.2605 10.9959 10.3247C10.8148 10.4494 10.6469 10.5815 10.4966 10.7174C9.6776 11.4577 8.89949 11.3575 8.86901 11.3532C8.85066 11.3503 8.83199 11.349 8.81353 11.3496C8.48985 11.3579 7.90625 11.0621 7.28887 10.5772C7.19444 10.5031 7.09762 10.4324 7.00094 10.3672C6.90771 10.3042 6.78723 10.2978 6.68788 10.3506C6.58849 10.4034 6.52637 10.5068 6.52637 10.6194V11.6634C6.52637 11.7557 6.56838 11.843 6.64038 11.9007C6.64889 11.9076 6.65775 11.9139 6.66689 11.9198L8.82482 13.3617C8.82517 13.362 8.82548 13.3622 8.82584 13.3625L8.83153 13.3663C8.88233 13.3999 8.94087 13.4169 8.99961 13.4169C9.04904 13.4169 9.09847 13.4049 9.14365 13.3807C9.15318 13.3756 9.16232 13.37 9.17111 13.3641C9.17213 13.3634 9.17315 13.3627 9.1742 13.362C9.1754 13.3613 9.17659 13.3604 9.17779 13.3596L11.3306 11.9211C11.3393 11.9156 11.3477 11.9097 11.3558 11.9034C11.4297 11.8457 11.4729 11.7572 11.4729 11.6635V10.5754C11.4729 10.4622 11.4102 10.3585 11.3101 10.3059ZM10.8642 11.5006L8.99958 12.7465L7.13503 11.5006V11.2238C7.58904 11.5537 8.2569 11.9584 8.8013 11.9584C8.80242 11.9584 8.80369 11.9584 8.80485 11.9584C8.98763 11.9786 9.91973 12.0335 10.8642 11.205V11.5006H10.8642Z" fill="#E77026"/>
<path d="M9.29965 13.0629C9.27958 12.9422 9.18912 12.8453 9.07008 12.8168C8.95097 12.7886 8.82659 12.8341 8.75417 12.9328L8.05466 13.8856C7.95517 14.0211 7.98435 14.2115 8.11988 14.311C8.17412 14.3509 8.23719 14.3701 8.29974 14.3701C8.39332 14.3701 8.48564 14.327 8.54534 14.2457L9.24119 13.298C9.28077 13.2462 9.30384 13.1818 9.30384 13.113C9.3038 13.0963 9.3024 13.0794 9.29965 13.0629Z" fill="#E77026"/>
<path d="M13.6363 3.25157C13.6303 3.2039 13.4877 2.17501 12.5192 1.76913C12.5474 1.58843 12.5444 1.35619 12.4297 1.13024C12.2755 0.826557 11.9712 0.628662 11.5253 0.541967C11.5061 0.53824 11.4867 0.536377 11.4672 0.536377H7.38252C5.72392 0.536377 4.37451 1.88575 4.37451 3.54442V5.14723C4.37451 5.56482 4.51686 5.97204 4.77526 6.29379C4.90337 6.45333 5.06115 6.73194 5.08495 7.15318C5.09423 7.31764 5.2319 7.44473 5.39739 7.44016C5.56206 7.43552 5.69312 7.30066 5.69312 7.13596V5.04626C5.89977 4.19165 6.60504 4.02532 6.72629 4.00286H8.04754C8.20296 4.00286 8.35579 3.97913 8.50186 3.9323C8.75309 3.85172 9.15166 3.70343 9.44184 3.59322C9.63597 3.51943 9.85092 3.51672 10.047 3.58562L11.4615 4.08217C12.1686 4.34303 12.2948 4.96382 12.3105 5.06135V7.56929C12.3105 7.72859 12.4333 7.86074 12.5921 7.87259C12.5998 7.87315 12.6074 7.87347 12.615 7.87347C12.7643 7.87343 12.8932 7.76406 12.9158 7.61419C12.917 7.60635 13.0385 6.82141 13.4303 6.19296C13.5667 5.97418 13.6388 5.72475 13.6388 5.47162V3.29C13.6388 3.27716 13.638 3.26433 13.6363 3.25157ZM13.0301 5.47148C13.0301 5.60743 12.9917 5.74229 12.9191 5.86221V5.04053C12.9191 5.02953 12.9185 5.0186 12.9173 5.00766C12.9125 4.96347 12.7868 3.92052 11.6693 3.51004C11.6679 3.50955 11.6666 3.50905 11.6652 3.50856L10.2486 3.01124C10.0889 2.95517 9.92176 2.92718 9.75476 2.92718C9.57519 2.92718 9.39571 2.95956 9.22566 3.02425C8.8194 3.17859 8.50478 3.29218 8.31596 3.35271C8.23007 3.38024 8.13975 3.39423 8.0475 3.39423H6.70168C6.68864 3.39423 6.67556 3.39508 6.66259 3.39673C6.61109 3.40341 5.39724 3.57603 5.09177 4.94519C5.08692 4.96695 5.08446 4.98917 5.08446 5.01146V5.6378C5.01819 5.48466 4.9831 5.31739 4.9831 5.14727V3.54449C4.9831 2.22149 6.05948 1.14511 7.38245 1.14511H11.4365C11.6043 1.18086 11.8083 1.25423 11.8857 1.40351C11.9804 1.58621 11.8725 1.83779 11.8724 1.838C11.8335 1.9208 11.8339 2.01667 11.8735 2.09911C11.9131 2.18155 11.9877 2.24181 12.0766 2.26322C12.8514 2.44972 13.0094 3.19282 13.03 3.31302V5.47148H13.0301Z" fill="#E77026"/>
<path d="M12.9173 5.00746C12.9126 4.96327 12.7868 3.92032 11.6694 3.50984C11.668 3.50935 11.6666 3.50885 11.6652 3.50836L10.2486 3.01104C9.9171 2.89467 9.55386 2.89931 9.22568 3.02398C8.81941 3.17831 8.5048 3.2919 8.31597 3.35248C8.23009 3.38001 8.13977 3.39396 8.04752 3.39396H6.7017C6.68866 3.39396 6.67558 3.39481 6.66261 3.39646C6.6111 3.40314 5.39726 3.57576 5.09178 4.94492C5.08693 4.96668 5.08447 4.9889 5.08447 5.01119V7.62738C5.08447 7.62963 5.08451 7.63188 5.08454 7.63413C5.08655 7.72501 5.15085 9.8712 6.63374 10.8527L6.64141 10.8581C6.64777 10.8626 6.65413 10.8671 6.66078 10.8716C6.74533 10.9287 6.83023 10.9907 6.91327 11.0559C7.34527 11.3951 8.15939 11.9583 8.80162 11.9583C8.80282 11.9583 8.80394 11.9583 8.80517 11.9583C8.84005 11.9622 8.90231 11.9673 8.98676 11.9673C9.35073 11.9673 10.1273 11.8719 10.9051 11.1688C11.0356 11.0508 11.1824 10.9355 11.3415 10.8258L11.3642 10.8099C11.3717 10.8047 11.3791 10.7994 11.3867 10.7943C11.8814 10.462 12.7381 9.60478 12.9179 7.59616C12.9187 7.58716 12.9192 7.57806 12.9192 7.56899V5.04033C12.9191 5.02936 12.9185 5.01843 12.9173 5.00746ZM12.3104 7.55524C12.1446 9.36797 11.3723 10.0707 11.0473 10.2889C11.0358 10.2967 11.0244 10.3047 11.013 10.3127L10.9962 10.3246C10.8151 10.4493 10.6472 10.5814 10.4969 10.7172C9.68095 11.4549 8.90537 11.3581 8.86733 11.3528C8.84965 11.3502 8.83172 11.349 8.81382 11.3495C8.49014 11.3578 7.90654 11.062 7.28916 10.5772C7.19473 10.503 7.09791 10.4323 7.00137 10.3672L6.99388 10.3619C6.98657 10.3567 6.97929 10.3515 6.97072 10.3458C5.77406 9.55381 5.69577 7.70033 5.69313 7.62299V5.04603C5.90052 4.18828 6.61015 4.02386 6.72582 4.00262H8.04755C8.20298 4.00262 8.3558 3.97889 8.50188 3.93207C8.75311 3.85149 9.15171 3.7032 9.44185 3.59298C9.63599 3.51919 9.85093 3.51648 10.047 3.58539L11.4615 4.08194C12.1686 4.3428 12.2948 4.96359 12.3105 5.06111V7.55524H12.3104Z" fill="#E77026"/>
<path d="M9.27188 12.9768C9.22446 12.882 9.13108 12.8186 9.02544 12.8096C8.91997 12.8009 8.8171 12.8473 8.75435 12.9328L8.02535 13.9257C7.92596 14.0611 7.955 14.2514 8.09031 14.351C8.1446 14.3909 8.20777 14.4102 8.27039 14.4102C8.36376 14.4102 8.45594 14.3673 8.5156 14.2864L9.24464 13.2972C9.2832 13.2448 9.30402 13.178 9.30402 13.113C9.30405 13.0658 9.29298 13.0191 9.27188 12.9768Z" fill="#E77026"/>
<path d="M9.29108 17.8767C9.17675 17.7572 8.98786 17.7508 8.8658 17.8625L8.79622 17.9261C8.69206 18.0214 8.66706 18.1758 8.7359 18.299L8.73804 18.3029C8.78452 18.3861 8.86741 18.4428 8.96188 18.4559C8.97587 18.4579 8.98986 18.4588 9.00379 18.4588C9.08391 18.4588 9.1615 18.4271 9.21898 18.3697L9.28637 18.3022C9.40333 18.1852 9.40544 17.9962 9.29108 17.8767Z" fill="#E77026"/>
<path d="M9.20333 17.9261L9.13375 17.8625C9.01169 17.7508 8.82276 17.7572 8.70843 17.8767C8.59407 17.9963 8.59618 18.1853 8.71318 18.3023L8.78068 18.3697C8.83816 18.4272 8.91571 18.4589 8.99584 18.4589C9.01014 18.4589 9.02452 18.4579 9.0389 18.4558C9.13368 18.4423 9.21658 18.3848 9.26267 18.3009L9.26482 18.2971C9.33225 18.174 9.30686 18.0208 9.20333 17.9261Z" fill="#E77026"/>
<path d="M9.20823 17.9308L9.20784 17.9305C9.16084 17.8865 9.10005 17.8575 9.03308 17.8502C8.9434 17.8404 8.85603 17.8708 8.79251 17.93L8.79159 17.9308C8.73007 17.9869 8.69425 18.0658 8.69245 18.1491C8.69066 18.2324 8.72307 18.3127 8.7821 18.3715L8.7853 18.3747C8.84468 18.4337 8.92227 18.4632 8.99989 18.4632C9.0778 18.4632 9.15567 18.4334 9.21505 18.3741L9.21825 18.3709C9.27703 18.3121 9.30923 18.2318 9.3073 18.1487C9.30547 18.0656 9.26964 17.9868 9.20823 17.9308Z" fill="#E77026"/>
<path d="M9.0988 12.8181C8.97276 12.7777 8.83446 12.8245 8.75771 12.9324C8.67186 13.0533 8.68603 13.218 8.79062 13.3231C8.84947 13.3822 8.92759 13.4125 9.0063 13.4125C9.06744 13.4125 9.12889 13.3942 9.18191 13.3569C9.26291 13.2999 9.3111 13.2071 9.3111 13.108V13.1073C9.3111 12.9749 9.22497 12.8583 9.0988 12.8181Z" fill="#E77026"/>
<path d="M9.24744 12.9299L9.24484 12.9264C9.16676 12.8207 9.02965 12.7772 8.90488 12.8183C8.78011 12.8594 8.6958 12.976 8.6958 13.1073V13.1125C8.6958 13.2246 8.7587 13.3267 8.85742 13.3797C8.90213 13.4037 8.95149 13.4156 9.00078 13.4156C9.06023 13.4156 9.11961 13.3983 9.17066 13.3645C9.24024 13.3185 9.28787 13.2458 9.30239 13.1637C9.31691 13.0815 9.29705 12.997 9.24744 12.9299Z" fill="#E77026"/>
<path d="M17.9847 17.1694L17.5921 14.7987C17.4684 14.0516 16.9491 13.4274 16.237 13.1699L12.4389 11.7957C12.3218 11.7534 12.1909 11.7866 12.1082 11.8795C12.0254 11.9724 12.0075 12.1064 12.0631 12.2178L12.8561 13.808L12.078 13.82C11.9723 13.8217 11.875 13.8779 11.8211 13.9688C11.7671 14.0596 11.764 14.1719 11.8131 14.2655L12.1322 14.8749L8.86607 17.8627C8.86273 17.8658 8.85946 17.8689 8.85626 17.8721L8.78883 17.9395C8.69331 18.035 8.67219 18.1821 8.73705 18.3007L8.73944 18.305C8.79284 18.4026 8.89522 18.4633 9.00645 18.4633H16.8875C17.2149 18.4633 17.5241 18.3201 17.7357 18.0704C17.9474 17.8207 18.0382 17.4923 17.9847 17.1694ZM17.2716 17.6768C17.1757 17.7898 17.0357 17.8547 16.8875 17.8547H9.77659L12.716 15.1658C12.818 15.0726 12.8444 14.9224 12.7802 14.8L12.5817 14.4209L13.349 14.4091C13.4536 14.4075 13.5499 14.3523 13.6043 14.263C13.6587 14.1736 13.6633 14.0626 13.6167 13.969L12.9474 12.6269L16.0301 13.7421C16.5355 13.925 16.904 14.3679 16.9918 14.8981L17.3843 17.2688C17.3843 17.2688 17.3843 17.2688 17.3843 17.2688C17.4085 17.4151 17.3675 17.5637 17.2716 17.6768Z" fill="#E77026"/>
<path d="M9.21058 17.9335L9.20703 17.9303C9.08658 17.8212 8.90159 17.8261 8.78698 17.9413L8.78382 17.9445C8.69716 18.0317 8.67146 18.1625 8.71864 18.276C8.76586 18.3895 8.87674 18.4634 8.99964 18.4634H9.00632C9.13215 18.4634 9.24503 18.3859 9.29024 18.2685C9.33556 18.1511 9.30388 18.0179 9.21058 17.9335Z" fill="#E77026"/>
<path d="M9.20145 17.9246C9.13237 17.8624 9.03867 17.8351 8.94692 17.8508C8.85526 17.8663 8.77574 17.9229 8.73102 18.0044L8.72891 18.0082C8.66475 18.1252 8.68427 18.2703 8.77704 18.3662L8.77813 18.3674C8.83776 18.429 8.91721 18.4601 8.99687 18.4601C9.07017 18.4601 9.14369 18.4337 9.2019 18.3805L9.2051 18.3776C9.23274 18.3524 9.25552 18.3223 9.27225 18.2888C9.33353 18.1664 9.30322 18.0161 9.20145 17.9246Z" fill="#E77026"/>
<path d="M9.21455 17.9432L9.21329 17.9419C9.21248 17.9411 9.21163 17.9403 9.21086 17.9395L9.14336 17.8721C9.14019 17.8689 9.13692 17.8657 9.13362 17.8627L5.86749 14.8749L6.18668 14.2656C6.23572 14.172 6.23266 14.0596 6.1787 13.9688C6.1247 13.878 6.02745 13.8217 5.92181 13.82L5.14362 13.8081L5.93661 12.2178C5.99216 12.1064 5.97423 11.9724 5.8915 11.8795C5.80878 11.7866 5.67772 11.7534 5.56075 11.7958L1.76271 13.1699C1.05058 13.4274 0.531325 14.0516 0.407609 14.7988L0.0150188 17.1695C-0.038454 17.4925 0.0523197 17.8208 0.264031 18.0705C0.475778 18.3201 0.784977 18.4633 1.11228 18.4633H9.00003C9.12328 18.4633 9.23434 18.389 9.28131 18.2751C9.32832 18.1612 9.30195 18.0301 9.21455 17.9432ZM1.11232 17.8547C0.964099 17.8547 0.824106 17.7899 0.72827 17.6768C0.632434 17.5638 0.591372 17.4151 0.615559 17.2688L1.00815 14.8982C1.09594 14.3679 1.46441 13.925 1.96978 13.7422L5.05246 12.6269L4.38323 13.969C4.33654 14.0626 4.34118 14.1735 4.39557 14.2629C4.44988 14.3523 4.54632 14.4075 4.65091 14.4091L5.41823 14.4209L5.21967 14.8C5.15558 14.9224 5.18194 15.0726 5.28383 15.1658L8.22328 17.8547H1.11232Z" fill="#E77026"/>
</g>
<defs>
<clipPath id="clip0_714_15575">
<rect width="18" height="18" fill="white" transform="translate(0 0.5)"/>
</clipPath>
</defs>
</svg>
