<svg width="24" height="24" viewBox="0 0 24 24" fill="none" xmlns="http://www.w3.org/2000/svg">
<path d="M22.8611 22.6944L16.9323 16.8604C18.4849 15.1736 19.4388 12.9428 19.4388 10.488C19.4381 5.23681 15.1128 0.980469 9.7769 0.980469C4.44099 0.980469 0.115723 5.23681 0.115723 10.488C0.115723 15.7392 4.44099 19.9956 9.7769 19.9956C12.0824 19.9956 14.1969 19.1981 15.8579 17.8724L21.8096 23.7294C22.0996 24.0151 22.5704 24.0151 22.8604 23.7294C23.1511 23.4438 23.1511 22.9801 22.8611 22.6944ZM9.7769 18.5328C5.26214 18.5328 1.60223 14.931 1.60223 10.488C1.60223 6.04501 5.26214 2.44326 9.7769 2.44326C14.2917 2.44326 17.9516 6.04501 17.9516 10.488C17.9516 14.931 14.2917 18.5328 9.7769 18.5328Z" fill="white"/>
</svg>
