<svg id="eWczP0hovps1" xmlns="http://www.w3.org/2000/svg" xmlns:xlink="http://www.w3.org/1999/xlink" viewBox="0 0 1400 1400" shape-rendering="geometricPrecision" text-rendering="geometricPrecision"><g transform="translate(-381.38501-984.344971)"><path d="M1267.51,1738.41v-282.79c0-12.526174-4.976003-24.539309-13.833346-33.396653s-20.870478-13.833347-33.396654-13.833347h-597.95c-26.086027-.000001-47.234478,21.143974-47.24,47.23v685.24" fill="none" stroke="#354254" stroke-width="23.25" stroke-linecap="round" stroke-linejoin="round"/><path d="M752.4,2140.86v-122.56c-.002653-6.80984,2.700686-13.341674,7.515032-18.157896s11.345128-7.522105,18.154968-7.522104h188.43" fill="none" stroke="#354254" stroke-width="23.25" stroke-linecap="round" stroke-linejoin="round"/><line x1="916.06" y1="1992.62" x2="916.06" y2="2140.86" fill="none" stroke="#354254" stroke-width="23.25" stroke-linecap="round" stroke-linejoin="round"/><rect width="90.39" height="90.39" rx="12.47" ry="12.47" transform="translate(701.94 1501.4)" fill="#2bbfc7"/><rect width="90.39" height="90.39" rx="12.47" ry="12.47" transform="translate(876.11 1501.4)" fill="#2bbfc7"/><rect width="90.39" height="90.39" rx="12.47" ry="12.47" transform="translate(1050.28 1501.4)" fill="#2bbfc7"/><rect width="90.39" height="90.39" rx="12.47" ry="12.47" transform="translate(701.94 1662.25)" fill="#2bbfc7"/><rect width="90.39" height="90.39" rx="12.47" ry="12.47" transform="translate(876.11 1662.25)" fill="#2bbfc7"/><rect width="90.39" height="90.39" rx="12.47" ry="12.47" transform="translate(1050.28 1662.25)" fill="#2bbfc7"/><rect width="90.39" height="90.39" rx="12.47" ry="12.47" transform="translate(701.94 1823.11)" fill="#2bbfc7"/><rect width="90.39" height="90.39" rx="12.47" ry="12.47" transform="translate(876.11 1823.11)" fill="#2bbfc7"/><rect width="90.39" height="90.39" rx="12.47" ry="12.47" transform="translate(1050.28 1823.11)" fill="#2bbfc7"/><path d="M921.3,1112.27l22.25,45.07c8.227815,16.718709,24.161074,28.313334,42.6,31l49.74,7.23-36,35.08c-13.337107,12.99692-19.42186,31.726141-16.27,50.08l8.49,49.54-44.49-23.39c-16.485354-8.65947-36.174646-8.65947-52.66,0l-44.48,23.39l8.49-49.54c3.146526-18.353474-2.937435-37.080257-16.27-50.08l-36-35.08l49.74-7.23c18.438926-2.686666,34.372185-14.281291,42.6-31Z" fill="#f36e41"/><path d="M1198.59,1177.32l15.61,31.62c5.782408,11.711214,16.955186,19.829053,29.88,21.71l34.9,5.07-25.25,24.61c-9.359219,9.119212-13.630089,22.260927-11.42,35.14l6,34.75-31.21-16.41c-11.562977-6.079273-25.377023-6.079273-36.94,0l-31.21,16.41l6-34.75c2.209074-12.877128-2.057441-26.016948-11.41-35.14l-25.26-24.61l34.9-5.07c12.927186-1.881166,24.102924-9.998438,29.89-21.71Z" fill="#f36e41"/><path d="M644,1177.32l15.6,31.62c5.784354,11.713858,16.961472,19.832133,29.89,21.71l34.89,5.07-25.25,24.61c-9.352559,9.123052-13.619074,22.262872-11.41,35.14l6,34.75-31.21-16.41c-11.579855-6.096853-25.420145-6.096853-37,0l-31.21,16.41l6-34.75c2.209074-12.877128-2.057441-26.016948-11.41-35.14l-25.25-24.61l34.89-5.07c12.928528-1.877867,24.105646-9.996142,29.89-21.71Z" fill="#f36e41"/><path d="M1214.89,1969.67c-13.67-63.41-5.32-117.39,16.79-160c16.76-32.35,65.69-20.1,65,16.32-.61,32.08,3.1,58.89,9.54,81.26c19.12,66.35,80.89,111.29,149.93,111.29v0" fill="none" stroke="#354254" stroke-width="23.25" stroke-linecap="round" stroke-linejoin="round"/><path d="M1116,2041.86h-59.3c-9.454968,0-18.522685-3.755971-25.208357-10.441643s-10.441643-15.753389-10.441643-25.208357v0c0-9.454968,3.755971-18.522685,10.441643-25.208357s15.753389-10.441643,25.208357-10.441643h182.48" fill="none" stroke="#354254" stroke-width="23.25" stroke-linecap="round" stroke-linejoin="round"/><path d="M1049.27,2041.86v35.64c0,9.454967,3.755971,18.522684,10.441643,25.208356s15.753388,10.441644,25.208357,10.441644h59.3" fill="none" stroke="#354254" stroke-width="23.25" stroke-linecap="round" stroke-linejoin="round"/><path d="M1078.78,2113.15v35.65c0,9.454967,3.755971,18.522684,10.441643,25.208356s15.753388,10.441644,25.208357,10.441644h59.3" fill="none" stroke="#354254" stroke-width="23.25" stroke-linecap="round" stroke-linejoin="round"/><path d="M1115.78,2184.45v35.64c-.000001,19.685047,15.954954,35.644478,35.64,35.65h59.31" fill="none" stroke="#354254" stroke-width="23.25" stroke-linecap="round" stroke-linejoin="round"/><path d="M1210.73,2255.74c33.15,0,63.5-5.67,93.51-14.85s60.19-20.09,91.58-20.21h60.32" fill="none" stroke="#354254" stroke-width="23.25" stroke-linecap="round" stroke-linejoin="round"/><polyline points="1599.13,2256.42 1456.14,2256.42 1456.14,1979.69 1599.13,1979.69" fill="none" stroke="#354254" stroke-width="23.25" stroke-linecap="round" stroke-linejoin="round"/></g></svg>
