<svg width="18" height="19" viewBox="0 0 18 19" fill="none" xmlns="http://www.w3.org/2000/svg">
<path d="M17.6087 0.5H2.73913H0.391304C0.175304 0.5 0 0.675304 0 0.891304V3.23913V18.1087C0 18.3247 0.175304 18.5 0.391304 18.5H2.73913C2.95513 18.5 3.13043 18.3247 3.13043 18.1087V17.7174H14.4783C14.582 17.7174 14.6817 17.6763 14.7549 17.6027L17.1027 15.2549C17.1763 15.1817 17.2174 15.082 17.2174 14.9783V3.63043H17.6087C17.8247 3.63043 18 3.45513 18 3.23913V0.891304C18 0.675304 17.8247 0.5 17.6087 0.5ZM2.34783 17.7174H0.782609V3.63043H2.34783V17.7174ZM2.34783 2.84783H0.782609V1.28261H2.34783V2.84783ZM16.4348 14.8163L14.3163 16.9348H14.087V14.587H16.4348V14.8163ZM16.4348 13.8043H13.6957C13.4797 13.8043 13.3043 13.9797 13.3043 14.1957V16.9348H3.13043V9.8913H5.08696C5.30296 9.8913 5.47826 9.716 5.47826 9.5C5.47826 9.284 5.30296 9.1087 5.08696 9.1087H3.13043V3.63043H8.6087V5.58696C8.6087 5.80296 8.784 5.97826 9 5.97826C9.216 5.97826 9.3913 5.80296 9.3913 5.58696V3.63043H16.4348V13.8043ZM17.2174 2.84783H3.13043V1.28261H17.2174V2.84783Z" fill="#E77026"/>
</svg>
