<svg width="20" height="20" viewBox="0 0 20 20" fill="none" xmlns="http://www.w3.org/2000/svg">
<g clip-path="url(#clip0_761_3217)">
<path d="M10.3574 19.988C11.8868 19.7707 13.2276 18.1745 14.0712 15.8171C12.8516 15.544 11.607 15.3974 10.3574 15.3799V19.988Z" fill="white"/>
<path d="M12.8004 19.6133C12.8908 19.5871 12.9809 19.5608 13.0702 19.5318C13.1456 19.5076 13.22 19.4814 13.2943 19.4554C13.3823 19.425 13.4699 19.3938 13.5572 19.3606C13.6315 19.3323 13.7052 19.3023 13.779 19.2723C13.8642 19.2365 13.9492 19.2009 14.0333 19.1651C14.1068 19.1328 14.1797 19.099 14.2527 19.065C14.3352 19.026 14.4174 18.9864 14.4989 18.9452C14.5705 18.9087 14.6419 18.8716 14.7134 18.8334C14.7935 18.7904 14.8731 18.7466 14.9522 18.7016C15.0237 18.6611 15.0927 18.6204 15.1623 18.5785C15.2398 18.5309 15.3169 18.4832 15.3936 18.4356C15.4622 18.392 15.5306 18.3476 15.5981 18.3019C15.6735 18.2511 15.7479 18.1982 15.8219 18.1454C15.8884 18.0977 15.9545 18.0502 16.0194 18.0024C16.091 17.9473 16.1643 17.8902 16.236 17.8329C16.2997 17.7822 16.3632 17.7317 16.4259 17.6795C16.4973 17.6202 16.5657 17.5588 16.635 17.4973C16.6957 17.4434 16.7568 17.39 16.8161 17.3347C16.8844 17.271 16.9509 17.205 17.0174 17.1395C17.075 17.0826 17.1333 17.0266 17.1896 16.9683C17.2001 16.9575 17.2101 16.9458 17.2209 16.9346C16.4413 16.532 15.6201 16.2159 14.7717 15.9922C14.3305 17.3992 13.5453 18.6744 12.4873 19.7016C12.5163 19.6941 12.5452 19.688 12.5742 19.6805C12.6507 19.6591 12.7257 19.6355 12.8004 19.6133Z" fill="white"/>
<path d="M19.9996 10.3657H15.7139C15.6976 12.0391 15.4549 13.7025 14.9922 15.3108C15.9357 15.5629 16.8462 15.9252 17.7049 16.3903C19.1148 14.6911 19.9218 12.5725 19.9996 10.3657Z" fill="white"/>
<path d="M10.3574 9.65091H14.9994C14.9812 8.03669 14.7444 6.43241 14.2957 4.88171C13.0031 5.17649 11.683 5.33392 10.3574 5.35137V9.65091Z" fill="white"/>
<path d="M10.3574 0.0281982V4.6363C11.607 4.61867 12.8516 4.47224 14.0712 4.1991C13.2276 1.84173 11.8868 0.245488 10.3574 0.0281982Z" fill="white"/>
<path d="M10.3574 14.6653C11.683 14.6829 13.0031 14.8404 14.2957 15.1352C14.7444 13.5845 14.9812 11.98 14.9994 10.3658H10.3574V14.6653Z" fill="white"/>
<path d="M17.7049 3.62622C16.8462 4.09134 15.9357 4.45367 14.9922 4.70569C15.4549 6.31398 15.6976 7.97742 15.7139 9.65081H19.9996C19.9216 7.44423 19.1146 5.32561 17.7049 3.62622Z" fill="white"/>
<path d="M17.2227 3.08399C17.2123 3.07334 17.2023 3.06182 17.192 3.05083C17.1355 2.99254 17.0768 2.93634 17.0192 2.87962C16.9529 2.81417 16.8868 2.74802 16.8183 2.68449C16.7592 2.62934 16.6979 2.57716 16.6372 2.52218C16.5679 2.46074 16.4986 2.39879 16.4274 2.33945C16.3656 2.28726 16.3023 2.23735 16.2394 2.18726C16.1679 2.12931 16.0946 2.07172 16.0209 2.01639C15.9563 1.9677 15.8909 1.92058 15.8251 1.87345C15.7504 1.8197 15.6753 1.76612 15.5992 1.71498C15.5324 1.66995 15.4645 1.62597 15.3966 1.58286C15.3193 1.53312 15.2422 1.48443 15.1634 1.4373C15.0945 1.39594 15.0249 1.3551 14.9551 1.31548C14.8751 1.26976 14.795 1.22542 14.7142 1.18214C14.6426 1.14636 14.5713 1.10744 14.4997 1.07166C14.4175 1.03013 14.3346 0.990159 14.2496 0.95089C14.178 0.916856 14.1054 0.883696 14.0318 0.851408C13.9471 0.813884 13.8616 0.780025 13.7763 0.744247C13.7026 0.714228 13.6293 0.684558 13.555 0.656284C13.4682 0.623123 13.3803 0.592057 13.2923 0.561689C13.218 0.535509 13.1436 0.509505 13.0682 0.48507C12.9789 0.456098 12.8895 0.429745 12.7977 0.403216C12.7233 0.3814 12.6486 0.359235 12.5734 0.339338C12.5446 0.331484 12.5153 0.325376 12.4863 0.317871C13.5443 1.34515 14.3294 2.62009 14.7708 4.02732C15.62 3.80357 16.4424 3.48733 17.2227 3.08399Z" fill="white"/>
<path d="M0 9.65081H4.28575C4.30198 7.97742 4.54475 6.31398 5.00725 4.70569C4.06392 4.45384 3.1534 4.09152 2.29471 3.62622C0.884865 5.32544 0.0778402 7.44423 0 9.65081Z" fill="white"/>
<path d="M9.64252 19.988V15.3799C8.39289 15.3976 7.14832 15.544 5.92871 15.8171C6.77221 18.1745 8.11312 19.7707 9.64252 19.988Z" fill="white"/>
<path d="M9.64294 10.3657H5.00098C5.01913 11.9799 5.25579 13.5844 5.70468 15.1351C6.99725 14.8401 8.31722 14.6827 9.64294 14.6653V10.3657Z" fill="white"/>
<path d="M9.64252 0.0281982C8.11312 0.245488 6.77221 1.84173 5.92871 4.1991C7.14832 4.47242 8.39289 4.61885 9.64252 4.6363V0.0281982Z" fill="white"/>
<path d="M9.64294 5.35137C8.31739 5.33392 6.99725 5.17649 5.70468 4.88171C5.25579 6.43241 5.01913 8.03669 5.00098 9.65091H9.64294V5.35137Z" fill="white"/>
<path d="M7.51087 0.317505C7.4819 0.32501 7.45293 0.331118 7.42396 0.338623C7.34821 0.358868 7.27351 0.381383 7.19812 0.403199C7.10841 0.429378 7.0194 0.455732 6.92934 0.484355C6.85342 0.508964 6.77872 0.535143 6.70402 0.561148C6.61658 0.59204 6.52897 0.622757 6.4424 0.655569C6.3677 0.684191 6.29405 0.713861 6.22005 0.74423C6.13505 0.780008 6.04988 0.815787 5.96593 0.851391C5.89228 0.883679 5.8195 0.917537 5.74655 0.951571C5.664 0.990491 5.58179 1.03011 5.50029 1.0713C5.42873 1.10777 5.35717 1.14512 5.28579 1.18317C5.20568 1.22611 5.12627 1.27009 5.04738 1.31512C4.97583 1.35508 4.90549 1.3961 4.83655 1.43798C4.75889 1.48476 4.68209 1.5331 4.60565 1.58092C4.53688 1.62491 4.46864 1.66924 4.4011 1.71496C4.3257 1.76575 4.25135 1.81863 4.17735 1.87152C4.11086 1.91916 4.04471 1.96663 3.97961 2.01463C3.90648 2.06961 3.83667 2.12685 3.76302 2.18392C3.69949 2.23471 3.63544 2.28515 3.5733 2.33768C3.50175 2.39667 3.43385 2.45776 3.36492 2.51885C3.30383 2.5733 3.24222 2.62618 3.18253 2.68255C3.11464 2.74591 3.04849 2.81171 2.98217 2.87698C2.92458 2.93388 2.86593 2.99008 2.80939 3.04854C2.79909 3.05936 2.78914 3.07123 2.77832 3.08223C3.55777 3.48504 4.37911 3.80111 5.2275 4.02486C5.66871 2.6185 6.4534 1.34426 7.51087 0.317505Z" fill="white"/>
<path d="M2.98081 17.137C3.0473 17.2024 3.11345 17.2686 3.18169 17.3323C3.24103 17.3873 3.30212 17.4395 3.36303 17.4944C3.43232 17.556 3.5016 17.6178 3.57281 17.6772C3.6346 17.729 3.6976 17.7791 3.76078 17.8294C3.83234 17.8873 3.90372 17.9449 3.97947 18.0006C4.04387 18.0489 4.10932 18.0957 4.17476 18.1437C4.24946 18.1973 4.32486 18.2508 4.40095 18.3023C4.4678 18.3474 4.53569 18.3913 4.60358 18.4346C4.6809 18.4842 4.75804 18.5329 4.83676 18.58C4.90569 18.6215 4.97533 18.6622 5.04514 18.702C5.12508 18.7477 5.20519 18.7921 5.28599 18.8352C5.35738 18.8709 5.42893 18.9099 5.50049 18.9456C5.58269 18.9872 5.6656 19.0271 5.75059 19.0666C5.82215 19.1003 5.89475 19.1334 5.9684 19.1659C6.05305 19.2034 6.1384 19.2373 6.22392 19.2731C6.29757 19.3031 6.37087 19.3327 6.44522 19.361C6.53196 19.3944 6.61992 19.4254 6.70789 19.4558C6.78224 19.4818 6.85659 19.508 6.93198 19.5322C7.02134 19.5612 7.1107 19.5877 7.2025 19.6141C7.27685 19.6359 7.35155 19.6581 7.4266 19.6781C7.45557 19.686 7.48489 19.6921 7.51386 19.6996C6.45587 18.6722 5.67083 17.3972 5.22945 15.99C4.38106 16.2139 3.55972 16.53 2.78027 16.933C2.79075 16.9436 2.80069 16.9551 2.81117 16.9661C2.86475 17.0241 2.92251 17.0803 2.98081 17.137Z" fill="white"/>
<path d="M2.29471 16.3904C3.1534 15.9252 4.06392 15.5629 5.00725 15.3109C4.54475 13.7026 4.30198 12.0392 4.28575 10.3658H0C0.0780147 12.5724 0.884865 14.691 2.29471 16.3904Z" fill="white"/>
</g>
<defs>
<clipPath id="clip0_761_3217">
<rect width="20" height="20" fill="white"/>
</clipPath>
</defs>
</svg>
