<svg width="18" height="17" viewBox="0 0 18 17" fill="none" xmlns="http://www.w3.org/2000/svg">
<path d="M17.986 11.4255C17.9504 11.0431 17.7527 10.6932 17.4435 10.4654C16.888 10.0563 16.1176 10.1311 15.6513 10.6396L14.2732 12.1423V11.8758C14.2732 10.3003 13.1517 8.93412 11.6064 8.62724L10.8727 8.48149C10.6284 8.43297 10.4166 8.29643 10.272 8.10416C11.1813 7.74338 11.9025 7.00777 12.2442 6.08907C12.3023 6.16402 12.3652 6.23606 12.4334 6.30423C12.8654 6.73619 13.4432 6.97339 14.0471 6.97339C14.1263 6.97339 14.2059 6.96931 14.2857 6.96105C14.3882 6.95047 14.4808 6.89552 14.5391 6.81076C14.5975 6.72596 14.6158 6.61982 14.5892 6.52037L14.5242 6.278L14.7666 6.34293C14.866 6.36958 14.9722 6.35134 15.057 6.29291C15.1418 6.23451 15.1967 6.14191 15.2073 6.0395C15.2785 5.35086 15.0391 4.67572 14.5505 4.18712C13.9937 3.63038 13.1932 3.40478 12.438 3.57206C12.2445 1.84617 10.7765 0.5 8.99979 0.5C7.22306 0.5 5.75508 1.84617 5.56158 3.57206C4.80642 3.40478 4.00584 3.63035 3.44911 4.18712C2.96051 4.67575 2.72109 5.35093 2.79228 6.0395C2.8029 6.14191 2.85782 6.23451 2.94261 6.29291C3.02737 6.3513 3.13351 6.36955 3.23297 6.34293L3.47537 6.278L3.4104 6.52037C3.38375 6.61982 3.40203 6.72596 3.46043 6.81076C3.51882 6.89555 3.61142 6.9505 3.71384 6.96105C3.79367 6.96931 3.87327 6.97339 3.95251 6.97339C4.55646 6.97335 5.13429 6.73616 5.56622 6.30423C5.63439 6.23606 5.69728 6.16402 5.75539 6.08907C6.09708 7.00777 6.81827 7.74338 7.72759 8.10416C7.58303 8.29643 7.37124 8.43297 7.12698 8.48149L6.3932 8.62724C4.8543 8.93286 3.73602 10.2892 3.72681 11.8563C3.26742 12.0774 2.84368 12.3768 2.47254 12.7479L0.110776 15.1096C-0.0265088 15.2469 -0.0265088 15.4695 0.110776 15.6068C0.179437 15.6755 0.269401 15.7098 0.359366 15.7098C0.449331 15.7098 0.539296 15.6755 0.607956 15.6068L2.96968 13.2451C3.7016 12.5131 4.6748 12.11 5.70994 12.11C6.40649 12.11 7.06127 12.3813 7.55378 12.8738C7.61973 12.9397 7.70913 12.9768 7.80237 12.9768H10.1078C10.4491 12.9768 10.7267 13.2544 10.7267 13.5956C10.7267 13.9368 10.4491 14.2144 10.1078 14.2144H7.4353C7.24117 14.2144 7.08374 14.3718 7.08374 14.566C7.08374 14.7601 7.24117 14.9175 7.4353 14.9175H10.1792C11.7698 14.9175 13.2986 14.2452 14.3737 13.073L16.1694 11.1148C16.3924 10.8717 16.7608 10.8359 17.0265 11.0316C17.1765 11.1421 17.2686 11.3051 17.2858 11.4906C17.3031 11.6762 17.2426 11.8534 17.1155 11.9897L14.8383 14.4322C14.0233 15.3062 12.9796 15.9205 11.82 16.2089C11.6315 16.2557 11.5167 16.4464 11.5636 16.6349C11.6034 16.7948 11.7468 16.9017 11.9045 16.9017C11.9326 16.9017 11.9611 16.8983 11.9895 16.8912C13.2817 16.57 14.4446 15.8855 15.3526 14.9117L17.6298 12.4692C17.8918 12.1883 18.0216 11.8079 17.986 11.4255ZM12.5216 4.27532C13.0643 4.12939 13.6509 4.28186 14.0533 4.6843C14.2897 4.92072 14.4419 5.22036 14.4952 5.54225L14.118 5.44121C13.9966 5.40862 13.8672 5.44343 13.7784 5.53219C13.6896 5.621 13.6549 5.75044 13.6875 5.8718L13.7885 6.24892C13.4666 6.19559 13.1669 6.04347 12.9305 5.80708C12.5281 5.40461 12.3756 4.81807 12.5216 4.27532ZM11.7461 3.72559C10.898 3.64662 10.095 3.27935 9.48041 2.68598C9.74816 2.31012 9.95586 1.88649 10.0886 1.4277C11.0005 1.82124 11.6587 2.69322 11.7461 3.72559ZM8.99979 1.20312C9.13996 1.20312 9.27766 1.21381 9.41228 1.2341C9.00239 2.64738 7.73582 3.65858 6.25264 3.73659C6.3669 2.32064 7.55494 1.20312 8.99979 1.20312ZM5.06904 5.80705C4.83261 6.04347 4.53301 6.19559 4.21109 6.24889L4.31212 5.87177C4.34464 5.75044 4.30994 5.621 4.22114 5.53216C4.15434 5.46536 4.06455 5.42919 3.97251 5.42919C3.94221 5.42919 3.91166 5.43309 3.88157 5.44117L3.50444 5.54221C3.55774 5.22032 3.70986 4.92069 3.94629 4.68426C4.34872 4.28179 4.93544 4.12936 5.47801 4.27529C5.62401 4.81807 5.47147 5.40461 5.06904 5.80705ZM6.2428 4.88641V4.44133C7.31763 4.39686 8.30085 3.94436 9.02507 3.22299C9.76855 3.92615 10.7375 4.35488 11.7568 4.43226V4.88641C11.7568 6.4066 10.52 7.6434 8.99979 7.6434C7.4796 7.6434 6.2428 6.4066 6.2428 4.88641ZM8.99979 8.34649C9.19273 8.34649 9.38194 8.33035 9.56637 8.29984C9.6724 8.50068 9.81675 8.67629 9.98968 8.81818C9.74848 9.10952 9.39016 9.28231 8.99982 9.28231C8.60948 9.28231 8.25117 9.10952 8.01 8.81818C8.18293 8.67629 8.32728 8.50068 8.43332 8.29984C8.61767 8.33039 8.80689 8.34649 8.99979 8.34649ZM10.1079 12.2737H7.94345C7.33191 11.7136 6.54451 11.4069 5.71001 11.4069C5.27653 11.4069 4.85233 11.4671 4.44667 11.5828C4.57302 10.4688 5.40995 9.53941 6.5302 9.31694L7.26398 9.17118C7.30139 9.16376 7.33834 9.15501 7.37483 9.1452C7.74446 9.66984 8.3431 9.98547 8.99982 9.98547C9.65658 9.98547 10.2552 9.66984 10.6249 9.1452C10.6613 9.15501 10.6983 9.16376 10.7357 9.17118L11.4695 9.31694C12.6867 9.55864 13.5701 10.6348 13.5701 11.8758V12.8843C12.9393 13.4684 12.1681 13.878 11.3387 14.077C11.3973 13.9277 11.4299 13.7654 11.4299 13.5956C11.4299 12.8667 10.8368 12.2737 10.1079 12.2737Z" fill="#E77026"/>
</svg>
