<svg id="epPo4bOIQUB1" xmlns="http://www.w3.org/2000/svg" xmlns:xlink="http://www.w3.org/1999/xlink" viewBox="0 0 1400 1400" shape-rendering="geometricPrecision" text-rendering="geometricPrecision"><g transform="matrix(.949054 0 0 0.863309-211.09184-516.441214)"><path d="M727.62,1815.91c0,20.303404,10.831736,39.064523,28.415,49.216225s39.246737,10.151702,56.83,0s28.415-28.912821,28.415-49.216225c0-31.39-23.3-45.89-56.83-56.83-29.84-9.74-56.83-25.44-56.83-56.83c0-20.303404,10.831736-39.064523,28.415-49.216225s39.246737-10.151702,56.83,0s28.415,28.912821,28.415,49.216225" fill="none" stroke="#354254" stroke-width="32.64" stroke-linecap="round" stroke-miterlimit="10"/><line x1="784.45" y1="1613.74" x2="784.45" y2="1645.81" fill="none" stroke="#354254" stroke-width="32.64" stroke-linecap="round" stroke-miterlimit="10"/><line x1="784.45" y1="1872.74" x2="784.45" y2="1904.81" fill="none" stroke="#354254" stroke-width="32.64" stroke-linecap="round" stroke-miterlimit="10"/><path d="M698.89,1128c0,0,20.76-191.15,93.68-257.77c99.78-91.15,499.91-101.77,604.37-101.77" fill="none" stroke="#354254" stroke-width="32.64" stroke-linecap="round" stroke-linejoin="round"/><line x1="1284.54" y1="983.26" x2="1396.94" y2="983.26" fill="none" stroke="#354254" stroke-width="32.64" stroke-linecap="round" stroke-linejoin="round"/><path d="M1592.14,680.32h-166.85c-15.65889.005521-28.350001,12.701109-28.35,28.36v328.41c0,15.657273,12.692727,28.35,28.35,28.35h166.85" fill="none" stroke="#354254" stroke-width="32.64" stroke-linecap="round" stroke-linejoin="round"/><path d="M1284.66,983.26h-.12c-29.18,0-55.83,17.36-66.89,44.44-15.8,39-53,94.87-139.64,129.7-27.31,10.95-53.85,23.32-78.61,39.14-24.44,15.47-56.28,40.35-85.14,59.38-32.28,21.22-52.29,23.65-73,.1-.376615-.501508-.784069-.979097-1.22-1.43-7.918844-9.613214-11.559952-22.047675-10.077214-34.413897s7.960215-23.587442,17.927214-31.056103c33.84-25.75,81.38-60.46,126.71-122c14.89-20.14.73-49.32-25.43-49.32c0,0-47.78-4.1-85.29,39.89" fill="none" stroke="#354254" stroke-width="32.64" stroke-linecap="round" stroke-linejoin="round"/><polyline points="829.65,1128.02 588.06,1128.02 588.06,1421.52 1217.29,1421.52 1217.29,1164.11" fill="none" stroke="#354254" stroke-width="32.64" stroke-linecap="round" stroke-linejoin="round"/><path d="M1244.21,1975.2h-916.35v-347.93c-.000001-46.222327,37.467671-83.694477,83.69-83.7h749c22.19862,0,43.488043,8.818368,59.184838,24.515162s24.515162,36.986218,24.515162,59.184838v290.39" fill="none" stroke="#354254" stroke-width="32.64" stroke-linecap="round" stroke-linejoin="round"/><path d="M1244.21,1975.2h133.49c5.102765,0,9.996535-2.027066,13.604734-5.635266s5.635266-8.501969,5.635266-13.604734v-76.6c0-5.102765-2.027065-9.996534-5.635265-13.604734s-8.501969-5.635266-13.604735-5.635266h-89.2" fill="none" stroke="#354254" stroke-width="32.64" stroke-linecap="round" stroke-linejoin="round"/><path d="M1396.94,1913.92h83.28c29.68303,0,58.150319,11.791538,79.139391,32.780609s32.780609,49.456361,32.780609,79.139391v0c.002652,29.684762-11.787714,58.154621-32.777073,79.145855s-49.458165,32.784145-79.142927,32.784145h-723.49" fill="none" stroke="#354254" stroke-width="32.64" stroke-linecap="round" stroke-linejoin="round"/><path d="M620.09,1608.86h-208.54c-4.881716-.002653-9.564397,1.934741-13.01723,5.385698s-5.392771,8.132585-5.39277,13.014302v282.66h122.14v-48c.009633-94.894233,37.710131-185.899157,104.81-253Z" fill="#2bbfc7"/></g></svg>
