<svg width="49" height="30" viewBox="0 0 49 30" fill="none" xmlns="http://www.w3.org/2000/svg">
<path d="M45.1263 0.440674H11.9129C11.5237 0.440674 11.2083 0.756065 11.2083 1.1453C11.2083 1.53454 11.5237 1.84993 11.9129 1.84993H45.1263C46.2096 1.84993 47.0908 2.73118 47.0908 3.81443V18.8174C47.0908 19.9007 46.2096 20.7819 45.1263 20.7819H43.4391V16.1909C43.4391 15.8016 43.1236 15.4862 42.7345 15.4862H6.26554C5.87639 15.4862 5.56091 15.8016 5.56091 16.1909V20.7819H3.87375C2.79051 20.7819 1.90925 19.9007 1.90925 18.8174V3.81443C1.90925 2.73118 2.79051 1.84993 3.87375 1.84993H9.09438C9.48352 1.84993 9.799 1.53454 9.799 1.1453C9.799 0.756065 9.48352 0.440674 9.09438 0.440674H3.87375C2.01344 0.440674 0.5 1.95412 0.5 3.81443V18.8174C0.5 20.6777 2.01344 22.1912 3.87375 22.1912H11.2085C11.5977 22.1912 11.9132 21.8758 11.9132 21.4866C11.9132 21.0974 11.5977 20.7819 11.2085 20.7819H6.97016V19.5433H34.973C35.3622 19.5433 35.6777 19.2279 35.6777 18.8387C35.6777 18.4494 35.3622 18.134 34.973 18.134H6.97016V16.8954H42.0298V18.134H37.7916C37.4024 18.134 37.0869 18.4494 37.0869 18.8387C37.0869 19.2279 37.4024 19.5433 37.7916 19.5433H42.0298V20.7819H14.0269C13.6378 20.7819 13.3223 21.0974 13.3223 21.4866C13.3223 21.8758 13.6378 22.1912 14.0269 22.1912H45.1263C46.9866 22.1912 48.5001 20.6777 48.5001 18.8174V3.81443C48.5 1.95421 46.9866 0.440674 45.1263 0.440674Z" fill="#333333"/>
<path d="M42.7338 6.16975C43.123 6.16975 43.4385 5.85436 43.4385 5.46513C43.4385 5.07589 43.123 4.7605 42.7338 4.7605H40.6499C40.2608 4.7605 39.9453 5.07589 39.9453 5.46513C39.9453 5.85436 40.2608 6.16975 40.6499 6.16975H42.7338Z" fill="#333333"/>
<path d="M37.4359 6.16975C37.8251 6.16975 38.1406 5.85436 38.1406 5.46513C38.1406 5.07589 37.8251 4.7605 37.4359 4.7605H24.0992C23.71 4.7605 23.3945 5.07589 23.3945 5.46513C23.3945 5.85436 23.71 6.16975 24.0992 6.16975H37.4359Z" fill="#333333"/>
<path d="M13.7548 24.0764C13.3657 24.0764 13.0502 24.3918 13.0502 24.781C13.0502 24.802 13.0276 26.8909 11.0728 28.2802C10.7557 28.5056 10.6812 28.9456 10.9067 29.2628C11.0442 29.4562 11.2612 29.5593 11.4817 29.5593C11.6229 29.5593 11.7655 29.5169 11.8894 29.4289C14.4303 27.6228 14.4595 24.8961 14.4595 24.7809C14.4595 24.3918 14.144 24.0764 13.7548 24.0764Z" fill="#333333"/>
<path d="M18.7994 24.0764C18.4102 24.0764 18.0947 24.3918 18.0947 24.781V28.8545C18.0947 29.2438 18.4102 29.5592 18.7994 29.5592C19.1885 29.5592 19.504 29.2438 19.504 28.8545V24.781C19.504 24.3918 19.1885 24.0764 18.7994 24.0764Z" fill="#333333"/>
<path d="M24.6978 24.0764C24.3086 24.0764 23.9932 24.3918 23.9932 24.781V28.8545C23.9932 29.2438 24.3086 29.5592 24.6978 29.5592C25.0869 29.5592 25.4024 29.2438 25.4024 28.8545V24.781C25.4024 24.3918 25.0869 24.0764 24.6978 24.0764Z" fill="#333333"/>
<path d="M37.9276 28.2802C35.9992 26.9096 35.9513 24.8716 35.9503 24.7778C35.9486 24.3901 35.6338 24.0764 35.2456 24.0764C34.8565 24.0764 34.541 24.3918 34.541 24.781C34.541 24.8962 34.5702 27.6229 37.1112 29.4289C37.235 29.517 37.3777 29.5594 37.5189 29.5594C37.7393 29.5593 37.9564 29.4561 38.0938 29.2628C38.3192 28.9456 38.2448 28.5056 37.9276 28.2802Z" fill="#333333"/>
<path d="M30.1997 24.0764C29.8106 24.0764 29.4951 24.3918 29.4951 24.781V28.8545C29.4951 29.2438 29.8106 29.5592 30.1997 29.5592C30.5889 29.5592 30.9044 29.2438 30.9044 28.8545V24.781C30.9044 24.3918 30.5889 24.0764 30.1997 24.0764Z" fill="#333333"/>
</svg>
