<svg id="eL02vStUzmR1" xmlns="http://www.w3.org/2000/svg" xmlns:xlink="http://www.w3.org/1999/xlink" viewBox="0 0 1400 1400" shape-rendering="geometricPrecision" text-rendering="geometricPrecision"><g transform="translate(-307.231506-1118.381897)"><path d="M1139.88,1493.56c-4.63-26.57,17.64-54.6,44.57-56.09s52.16,23.93,50.48,50.85c-4.13,65.92-107.09,74.62-97.22,143.64h94.29" fill="none" stroke="#fff" stroke-width="45.14" stroke-linecap="round" stroke-linejoin="round"/><polyline points="1385.71,1631.96 1385.71,1428.29 1350.14,1428.29 1294.74,1543.41 1294.74,1573.19 1335.07,1573.19" fill="none" stroke="#fff" stroke-width="45.14" stroke-linecap="round" stroke-linejoin="round"/><path d="M1517.71,1766.69c-63.82003,65.614731-151.467006,102.624839-243,102.61-187.32,0-339.17-151.86-339.17-339.17s151.8-339.13,339.12-339.13c76.155067-.117438,150.114113,25.509387,209.87,72.72" fill="none" stroke="#fff" stroke-width="45.14" stroke-linecap="round" stroke-linejoin="round"/><line x1="1583.08" y1="1388.81" x2="1583.08" y2="1388.81" fill="none" stroke="#fff" stroke-width="45.14" stroke-linecap="round" stroke-linejoin="round"/><path d="M1608.38,1469.24c3.635072,20.092689,5.459059,40.471141,5.45,60.89.074108,50.346447-11.108633,100.072575-32.73,145.54" fill="none" stroke="#fff" stroke-width="45.14" stroke-linecap="round" stroke-linejoin="round"/><line x1="1560.55" y1="1712.7" x2="1560.55" y2="1712.7" fill="none" stroke="#fff" stroke-width="45.14" stroke-linecap="round" stroke-linejoin="round"/><line x1="1547.8" y1="1330.11" x2="1547.8" y2="1216.65" fill="none" stroke="#fff" stroke-width="45.14" stroke-linecap="round" stroke-linejoin="round"/><line x1="1547.8" y1="1330.11" x2="1434.34" y2="1330.11" fill="none" stroke="#fff" stroke-width="45.14" stroke-linecap="round" stroke-linejoin="round"/><path d="M1411.75,2237.38L1243.41,2069c-11.253691-11.263561-26.522897-17.592194-42.445-17.592194s-31.191309,6.328633-42.445,17.592194L1074,2153.61c-21.19,21.19-54.37,25.25-79.66,9.16-126.16-80.24-232.47-185.72-311.17-310.77-15.89-25.25-11.73-58.25,9.36-79.34l84.82-84.82c11.2605-11.253286,17.587191-26.520348,17.587191-42.44s-6.326691-31.186714-17.587191-42.44L609,1434.64c-11.253691-11.263561-26.522897-17.592194-42.445-17.592194s-31.191309,6.328633-42.445,17.592194l-99.73,99.78c-22.274592,22.258582-29.630167,55.409369-18.86,85c139.903213,381.169698,440.305193,681.560707,821.48,821.45c29.591528,10.783104,62.751075,3.421685,85-18.87l99.78-99.72c11.262647-11.258076,17.587828-26.531663,17.582201-42.456218s-6.341601-31.193668-17.612201-42.443782Z" fill="none" stroke="#fff" stroke-width="45.14" stroke-linecap="round" stroke-linejoin="round"/><path d="M1244.91,2157.77c-.59,32.86-3.67,65.47-11.73,97.32-9.32,36.79-26.42,72.74-50.65,101.75q32.4,13.88,65.69,26.12c2.045166.757315,4.209124,1.143373,6.39,1.14c5.159473-.022766,10.10121-2.082122,13.75-5.73l98.6-98.54Z" fill="#f26622"/></g></svg>
