<svg id="e7iPQfjD9Zy1" xmlns="http://www.w3.org/2000/svg" xmlns:xlink="http://www.w3.org/1999/xlink" viewBox="0 0 1400 1400" shape-rendering="geometricPrecision" text-rendering="geometricPrecision"><g transform="matrix(1.286536 0 0 1.308043-701.629421-1310.907021)"><path d="M1578.58,2045.18v-55.32h-939v-960.36h-55.28v988c-.024041,7.352006,2.887265,14.409537,8.087823,19.60634s12.26019,8.103012,19.612177,8.07366Z" fill="#4c4e50"/><path d="M1553,1124.47h-158.89c-22.969523,0-41.59,18.620477-41.59,41.59s18.620477,41.59,41.59,41.59h54.89l-293.41,346.42-1.51-104.16c-.253664-17.33062-11.231125-32.68602-27.547388-38.533609s-34.548391-.960617-45.752612,12.263609L696.5,1877.37c-14.839891,17.535041-12.655041,43.780109,4.88,58.62s43.780109,12.655041,58.62-4.88l312.52-369l1.54,104.16c.242615,17.336377,11.219612,32.701551,27.541145,38.551029s34.559511.954662,45.758855-12.281029l364.12-429.87v74.81c0,22.958477,18.611523,41.57,41.57,41.57s41.57-18.611523,41.57-41.57v-171.42c-.00552-22.967236-18.622764-41.58448-41.59-41.59Z" transform="translate(0 2.187764)" fill="#00ab8c"/></g></svg>
