<svg width="36" height="44" viewBox="0 0 36 44" fill="none" xmlns="http://www.w3.org/2000/svg">
<path d="M35.5318 37.3886L32.0002 16.2939V5.79862C32.0002 5.79439 32.0002 5.79059 32.0002 5.78635C31.9988 4.46837 31.4774 3.20477 30.5504 2.27282C29.6233 1.34086 28.3665 0.816641 27.0555 0.815186H8.73139C7.42041 0.816641 6.16354 1.34086 5.23654 2.27282C4.30954 3.20477 3.78811 4.46837 3.78666 5.78635C3.78666 5.98272 3.86425 6.17104 4.00236 6.30989C4.14047 6.44874 4.32779 6.52674 4.52311 6.52674H6.6323L8.92076 9.22936C8.99 9.31092 9.076 9.37642 9.17285 9.42134C9.26969 9.46626 9.37507 9.48953 9.48173 9.48956H10.4244V14.135C10.4243 14.2322 10.4433 14.3285 10.4803 14.4184C10.5173 14.5082 10.5716 14.5899 10.64 14.6586C10.7084 14.7274 10.7896 14.7819 10.8789 14.8191C10.9683 14.8563 11.0641 14.8754 11.1608 14.8753H11.5484L12.1207 18.4076C12.1489 18.581 12.2374 18.7388 12.3706 18.8526C12.5037 18.9664 12.6727 19.029 12.8475 19.0291H14.4092C14.5842 19.0293 14.7536 18.9669 14.8871 18.853C15.0206 18.7392 15.1094 18.5813 15.1377 18.4076L15.7096 14.8753H16.0984C16.2937 14.8753 16.481 14.7973 16.6192 14.6585C16.7573 14.5196 16.8349 14.3313 16.8349 14.135V9.48956H17.7775C17.8841 9.48959 17.9894 9.46633 18.0862 9.42141C18.183 9.37648 18.2689 9.31096 18.3381 9.22936L20.6269 6.52674H23.5306V35.3566H17.3062C17.9058 34.8182 18.3857 34.1587 18.7144 33.4211C19.0432 32.6835 19.2133 31.8845 19.2138 31.0763V25.1989C19.2138 25.0025 19.1362 24.8142 18.9981 24.6753C18.86 24.5365 18.6727 24.4585 18.4773 24.4585H8.48857C8.29329 24.4586 8.10603 24.5366 7.96795 24.6755C7.82986 24.8143 7.75224 25.0025 7.75212 25.1989V25.4481H7.62167C6.65847 25.4481 5.73472 25.8327 5.05364 26.5175C4.37255 27.2022 3.98992 28.1309 3.98992 29.0992C3.98992 30.0676 4.37255 30.9963 5.05364 31.681C5.73472 32.3657 6.65847 32.7504 7.62167 32.7504H8.00041C8.30712 33.7548 8.88087 34.656 9.65974 35.3566H0.880004C0.684685 35.3566 0.497366 35.4346 0.359255 35.5734C0.221144 35.7123 0.143555 35.9006 0.143555 36.0969V42.4431C0.143555 42.6395 0.221144 42.8278 0.359255 42.9667C0.497366 43.1055 0.684685 43.1835 0.880004 43.1835H30.6557C31.3745 43.1835 32.0846 43.026 32.7367 42.7218C33.3887 42.4177 33.9669 41.9743 34.4311 41.4226C34.8953 40.8708 35.2342 40.224 35.4243 39.5271C35.6144 38.8301 35.6511 38.1 35.5318 37.3873V37.3886ZM7.62167 31.2696C7.0491 31.2696 6.49999 31.041 6.09513 30.6339C5.69027 30.2269 5.46282 29.6749 5.46282 29.0992C5.46282 28.5236 5.69027 27.9716 6.09513 27.5645C6.49999 27.1575 7.0491 26.9288 7.62167 26.9288H7.75044C7.75465 29.2757 7.74245 30.7365 7.76012 31.2696H7.62167ZM9.29867 31.8619V31.8594C9.19683 31.3094 9.22376 31.6237 9.22376 25.9384H17.7413V31.0763C17.74 32.2071 17.2941 33.2916 16.5009 34.0934C15.7077 34.8951 14.6313 35.3492 13.5065 35.3566H13.4581C12.4694 35.3495 11.5138 34.9972 10.755 34.3598C9.99619 33.7225 9.48137 32.8397 9.29867 31.8628V31.8619ZM23.5273 41.7027H1.61645V36.8373H23.5273V41.7027ZM13.7834 17.5484H13.4737L13.0407 14.8762H14.216L13.7834 17.5484ZM15.3607 13.3946H11.8973V9.48956H15.3607V13.3946ZM17.4358 8.00878H9.82218L8.56685 6.52801H18.6911L17.4358 8.00878ZM5.33825 5.04724C5.50752 4.26877 5.93617 3.57177 6.55324 3.07166C7.17031 2.57155 7.93878 2.29832 8.73139 2.29723H27.0568C27.8494 2.2983 28.618 2.57151 29.2351 3.07162C29.8522 3.57173 30.281 4.26873 30.4503 5.04724H5.33825ZM30.5273 6.52801V15.6242H25.0019V6.52801H30.5273ZM33.3048 40.4686C32.9791 40.8564 32.5732 41.1681 32.1152 41.3817C31.6573 41.5953 31.1584 41.7057 30.6536 41.7053H24.9981C24.9981 35.4369 24.9981 38.0291 24.9981 17.1054H30.6372L34.0745 37.6365C34.159 38.1361 34.134 38.6483 34.0014 39.1372C33.8687 39.6261 33.6316 40.08 33.3065 40.4673L33.3048 40.4686Z" fill="#333333"/>
<path d="M28.4961 20.1126C28.4857 20.0159 28.4564 19.9223 28.41 19.837C28.3636 19.7517 28.3009 19.6764 28.2255 19.6154C28.1502 19.5545 28.0636 19.509 27.9708 19.4817C27.878 19.4544 27.7807 19.4457 27.6845 19.4562C27.5884 19.4667 27.4952 19.4961 27.4104 19.5428C27.3255 19.5894 27.2506 19.6525 27.19 19.7282C27.1294 19.804 27.0842 19.891 27.057 19.9843C27.0298 20.0777 27.0212 20.1754 27.0316 20.2721L28.8315 37.0027C28.8525 37.198 28.9499 37.3768 29.1021 37.4999C29.2543 37.623 29.4489 37.6803 29.6431 37.6591C29.8373 37.638 30.0152 37.5401 30.1376 37.3871C30.2601 37.2341 30.317 37.0385 30.296 36.8432L28.4961 20.1126Z" fill="#333333"/>
</svg>
