<svg width="20" height="20" viewBox="0 0 20 20" fill="none" xmlns="http://www.w3.org/2000/svg">
<path fill-rule="evenodd" clip-rule="evenodd" d="M0.791626 8.31776C0.791626 3.71789 4.95583 0 9.99286 0C15.0441 0 19.2083 3.71789 19.2083 8.31776C19.2083 10.6357 18.2951 12.7876 16.7919 14.6116C15.1337 16.6235 13.0898 18.3765 10.7892 19.7524C10.2627 20.0704 9.78749 20.0944 9.20961 19.7524C6.89592 18.3765 4.85205 16.6235 3.208 14.6116C1.70377 12.7876 0.791626 10.6357 0.791626 8.31776ZM6.96037 8.57675C6.96037 10.1177 8.32259 11.3297 9.99286 11.3297C11.6642 11.3297 13.0395 10.1177 13.0395 8.57675C13.0395 7.0478 11.6642 5.77683 9.99286 5.77683C8.32259 5.77683 6.96037 7.0478 6.96037 8.57675Z" fill="#E77026"/>
</svg>
