<svg width="6" height="7" viewBox="0 0 6 7" fill="none" xmlns="http://www.w3.org/2000/svg">
<path fill-rule="evenodd" clip-rule="evenodd" d="M0.000488281 2.88207C0.000488281 1.38356 1.35708 0.172363 2.99801 0.172363C4.64357 0.172363 6.00016 1.38356 6.00016 2.88207C6.00016 3.6372 5.70265 4.33824 5.21297 4.93244C4.67275 5.58788 4.00692 6.15894 3.25744 6.60719C3.08591 6.71079 2.93111 6.71861 2.74285 6.60719C1.98911 6.15894 1.32327 5.58788 0.787681 4.93244C0.297643 4.33824 0.000488281 3.6372 0.000488281 2.88207ZM2.01021 2.96631C2.01021 3.46831 2.45398 3.86314 2.99811 3.86314C3.5426 3.86314 3.99065 3.46831 3.99065 2.96631C3.99065 2.46821 3.5426 2.05417 2.99811 2.05417C2.45398 2.05417 2.01021 2.46821 2.01021 2.96631Z" fill="white"/>
</svg>
