<svg width="25" height="25" viewBox="0 0 25 25" fill="none" xmlns="http://www.w3.org/2000/svg">
<path fill-rule="evenodd" clip-rule="evenodd" d="M12.2678 14.0258C11.5709 14.0258 10.8761 13.7956 10.2949 13.3352L5.62301 9.56851C5.28655 9.29768 5.23446 8.80497 5.50426 8.46956C5.77613 8.13518 6.2678 8.08206 6.60321 8.35185L11.2709 12.1143C11.8574 12.5789 12.6834 12.5789 13.274 12.1102L17.8949 8.35393C18.2303 8.07997 18.722 8.13206 18.9949 8.46747C19.2668 8.80185 19.2157 9.29351 18.8813 9.56643L14.2522 13.3289C13.6668 13.7935 12.9668 14.0258 12.2678 14.0258Z" fill="white"/>
<mask id="mask0_580_2076" style="mask-type:alpha" maskUnits="userSpaceOnUse" x="1" y="2" width="23" height="21">
<path fill-rule="evenodd" clip-rule="evenodd" d="M1.04175 2.08325H23.4375V22.3958H1.04175V2.08325Z" fill="white"/>
</mask>
<g mask="url(#mask0_580_2076)">
<path fill-rule="evenodd" clip-rule="evenodd" d="M7.12404 20.8333H17.3532C17.3553 20.8312 17.3636 20.8333 17.3699 20.8333C18.5584 20.8333 19.6126 20.4083 20.4209 19.601C21.3595 18.6666 21.8751 17.3239 21.8751 15.8208V8.66659C21.8751 5.75721 19.973 3.64575 17.3532 3.64575H7.12612C4.50633 3.64575 2.60425 5.75721 2.60425 8.66659V15.8208C2.60425 17.3239 3.12091 18.6666 4.05841 19.601C4.86675 20.4083 5.92196 20.8333 7.10946 20.8333H7.12404ZM7.10633 22.3958C5.49904 22.3958 4.06362 21.8124 2.95529 20.7083C1.72091 19.477 1.04175 17.7416 1.04175 15.8208V8.66659C1.04175 4.91346 3.65737 2.08325 7.12612 2.08325H17.3532C20.822 2.08325 23.4376 4.91346 23.4376 8.66659V15.8208C23.4376 17.7416 22.7584 19.477 21.524 20.7083C20.4167 21.8114 18.9803 22.3958 17.3699 22.3958H17.3532H7.12612H7.10633Z" fill="white"/>
</g>
</svg>
