<svg width="58" height="59" viewBox="0 0 58 59" fill="none" xmlns="http://www.w3.org/2000/svg">
<path d="M32.7039 50.674H26.9583C26.6593 50.674 26.3725 50.7928 26.161 51.0043C25.9495 51.2157 25.8307 51.5025 25.8307 51.8016C25.8307 52.1006 25.9495 52.3874 26.161 52.5989C26.3725 52.8103 26.6593 52.9291 26.9583 52.9291H32.7039C33.003 52.9291 33.2898 52.8103 33.5012 52.5989C33.7127 52.3874 33.8315 52.1006 33.8315 51.8016C33.8315 51.5025 33.7127 51.2157 33.5012 51.0043C33.2898 50.7928 33.003 50.674 32.7039 50.674Z" fill="white"/>
<path d="M53.0114 19.0999C50.7379 19.0999 48.7727 19.7361 47.3285 20.9397C47.1953 21.0508 47.0593 21.1738 46.9226 21.3081V3.9905C46.9203 3.21367 46.6107 2.46931 46.0614 1.92C45.5121 1.3707 44.7677 1.0611 43.9909 1.05884H16.9294C16.1525 1.0611 15.4082 1.3707 14.8589 1.92C14.3096 2.46931 14 3.21367 13.9977 3.9905V6.98982L13.858 6.85012C12.9698 5.96195 11.7652 5.46297 10.5091 5.46297C9.25306 5.46297 8.04844 5.96195 7.16026 6.85012C6.27209 7.73829 5.77312 8.94292 5.77312 10.199C5.77312 11.4551 6.27209 12.6597 7.16026 13.5478L12.0397 18.4273C11.2499 18.6576 10.5338 19.0896 9.96166 19.6807C9.38956 20.2719 8.98125 21.0018 8.77691 21.7987C8.57256 22.5955 8.57924 23.4319 8.79628 24.2254C9.01331 25.0189 9.43323 25.7422 10.0147 26.3242L12.7903 29.0998C11.909 29.207 11.0756 29.5599 10.3853 30.118C9.69492 30.6762 9.17538 31.4172 8.88596 32.2565C8.59654 33.0958 8.54891 33.9995 8.74849 34.8646C8.94807 35.7296 9.38683 36.5211 10.0147 37.1488L11.888 39.0224C11.0067 39.1297 10.1734 39.4825 9.483 40.0407C8.79264 40.5989 8.2731 41.3399 7.98368 42.1792C7.69427 43.0184 7.64663 43.9222 7.84621 44.7872C8.04579 45.6523 8.48455 46.4438 9.11241 47.0715L13.9977 51.9571V54.5054C13.9986 55.2826 14.3077 56.0278 14.8573 56.5774C15.4069 57.127 16.1521 57.4362 16.9294 57.437H38.5786C38.8776 57.437 39.1644 57.3182 39.3759 57.1068C39.5874 56.8953 39.7062 56.6085 39.7062 56.3095V45.4849C39.7084 44.54 39.9295 43.6085 40.352 42.7634C40.7746 41.9183 41.3872 41.1825 42.1417 40.6138L46.4715 37.3664C46.6109 37.2607 46.7241 37.1244 46.8023 36.968C46.8805 36.8116 46.9216 36.6392 46.9226 36.4643V27.4438C46.9226 22.9531 49.6637 21.7006 51.8838 21.4226V56.3095C51.8838 56.6085 52.0026 56.8953 52.2141 57.1068C52.4256 57.3182 52.7124 57.437 53.0114 57.437C53.3105 57.437 53.5973 57.3182 53.8087 57.1068C54.0202 56.8953 54.139 56.6085 54.139 56.3095V20.2274C54.139 19.9284 54.0202 19.6416 53.8087 19.4301C53.5973 19.2187 53.3105 19.0999 53.0114 19.0999ZM16.9294 3.31397H43.9909C44.1703 3.31414 44.3422 3.38548 44.4691 3.51232C44.5959 3.63915 44.6673 3.81113 44.6674 3.9905V7.36823H16.2528V3.9905C16.253 3.81113 16.3243 3.63915 16.4512 3.51232C16.578 3.38548 16.75 3.31414 16.9294 3.31397ZM8.02781 10.1989C8.00526 8.01455 10.7352 6.88552 12.2634 8.44449L13.9977 10.1789V17.1963L8.75452 11.9531C8.52341 11.7233 8.34018 11.4499 8.21543 11.1488C8.09069 10.8477 8.02692 10.5248 8.02781 10.1989ZM11.6091 21.2215C12.5325 20.2591 14.1939 20.2591 15.1173 21.2215L20.22 26.3243C22.4609 28.7308 19.1092 32.0741 16.7119 29.8325L11.6091 24.7297C11.1446 24.2641 10.8837 23.6332 10.8837 22.9756C10.8837 22.3179 11.1446 21.6871 11.6091 21.2215ZM21.8146 24.7297L20.5891 23.504C20.8223 21.2622 21.8289 19.1716 23.4359 17.5912C25.0429 16.0108 27.15 15.0393 29.3954 14.8436C31.6408 14.6478 33.8843 15.2401 35.7405 16.5185C37.5967 17.797 38.9499 19.6819 39.5675 21.8496C40.1851 24.0172 40.0286 26.3322 39.125 28.3971C38.2214 30.4619 36.627 32.1476 34.6156 33.1648C32.6043 34.1819 30.3015 34.4669 28.1029 33.9708C25.9043 33.4748 23.947 32.2286 22.5672 30.4464C23.0871 29.5432 23.2952 28.4939 23.1591 27.4606C23.0231 26.4273 22.5506 25.4676 21.8146 24.7297ZM11.6091 32.0461C12.5325 31.0837 14.1939 31.0837 15.1173 32.0461L20.22 37.1489C22.4609 39.5555 19.1092 42.8987 16.7119 40.6571L11.6091 35.5543C11.1446 35.0887 10.8837 34.4579 10.8837 33.8002C10.8837 33.1425 11.1446 32.5117 11.6091 32.0461ZM10.707 41.9687C11.6305 41.0063 13.2918 41.0063 14.2152 41.9687L19.318 47.0715C21.5588 49.478 18.2071 52.8212 15.8098 50.5796L10.707 45.4768C10.2425 45.0112 9.98169 44.3804 9.98169 43.7228C9.98169 43.0651 10.2425 42.4343 10.707 41.9687ZM16.2528 54.5054V53.3778C16.6791 53.5 17.1204 53.562 17.5638 53.5619C18.2198 53.5622 18.8686 53.426 19.4692 53.1621C20.0697 52.8982 20.6088 52.5123 21.0522 52.029C21.4956 51.5456 21.8337 50.9753 22.045 50.3543C22.2562 49.7333 22.336 49.0751 22.2793 48.4216H37.451V55.1819H16.9294C16.75 55.1817 16.578 55.1104 16.4512 54.9836C16.3243 54.8567 16.253 54.6847 16.2528 54.5054ZM40.7886 38.8097C39.7546 39.589 38.9152 40.5973 38.3361 41.7554C37.757 42.9135 37.4541 44.19 37.451 45.4849V46.1659H21.4815C21.314 45.9188 21.1235 45.6881 20.9126 45.4768L19.039 43.6033C19.9203 43.496 20.7537 43.1432 21.4441 42.585C22.1344 42.0269 22.654 41.2859 22.9434 40.4466C23.2328 39.6073 23.2804 38.7036 23.0808 37.8385C22.8813 36.9735 22.4425 36.1819 21.8146 35.5543L19.039 32.7787C19.7328 32.6962 20.3993 32.4595 20.9897 32.086C22.6939 34.1636 25.0487 35.6061 27.6737 36.1805C30.2987 36.7549 33.0406 36.4276 35.4568 35.2517C37.8729 34.0757 39.8221 32.1196 40.9895 29.6993C42.1569 27.2791 42.4745 24.536 41.8908 21.913C41.3071 19.29 39.8564 16.9404 37.7728 15.2436C35.6892 13.5467 33.0945 12.6018 30.4077 12.5613C27.7209 12.5208 25.0989 13.3872 22.9651 15.0205C20.8314 16.6538 19.3105 18.9587 18.6481 21.5629C18.6481 21.5629 16.4127 19.3479 16.2528 19.2239V9.62336H44.6674V35.9006L40.7886 38.8097Z" fill="white"/>
<path d="M28.5271 25.6397H30.4439C30.8676 25.6547 31.2689 25.8335 31.5633 26.1385C31.8578 26.4434 32.0223 26.8508 32.0223 27.2747C32.0223 27.6986 31.8578 28.106 31.5633 28.411C31.2689 28.716 30.8676 28.8948 30.4439 28.9097H27.6015C27.2076 28.9187 26.9249 28.5362 26.9827 28.1602C26.988 27.8611 26.8743 27.5722 26.6667 27.357C26.459 27.1417 26.1743 27.0178 25.8753 27.0124C25.5762 27.0071 25.2873 27.1208 25.0721 27.3284C24.8568 27.5361 24.7329 27.8208 24.7275 28.1198L24.7254 28.2366C24.7185 28.6187 24.7878 28.9983 24.9292 29.3532C25.0707 29.7082 25.2814 30.0314 25.5492 30.304C25.8169 30.5766 26.1363 30.7932 26.4887 30.9409C26.8411 31.0887 27.2194 31.1648 27.6015 31.1648H28.4143V31.8414C28.4143 32.1404 28.5331 32.4272 28.7446 32.6387C28.956 32.8501 29.2428 32.9689 29.5419 32.9689C29.8409 32.9689 30.1277 32.8501 30.3392 32.6387C30.5506 32.4272 30.6694 32.1404 30.6694 31.8414V31.1577C31.6695 31.0848 32.6029 30.6288 33.275 29.8846C33.9471 29.1404 34.306 28.1656 34.2769 27.1632C34.2478 26.1609 33.833 25.2085 33.1189 24.5045C32.4048 23.8006 31.4466 23.3994 30.4439 23.3846H28.5271C28.1084 23.3846 27.7069 23.2183 27.4108 22.9223C27.1148 22.6262 26.9485 22.2247 26.9485 21.806C26.9485 21.3874 27.1148 20.9858 27.4108 20.6898C27.7069 20.3938 28.1084 20.2274 28.5271 20.2274H31.3247C31.7218 20.2606 31.9285 20.4765 31.9448 20.8751C31.9385 21.0231 31.9613 21.1708 32.012 21.3099C32.0628 21.449 32.1404 21.5768 32.2405 21.6859C32.4427 21.9063 32.7241 22.0373 33.0229 22.0501C33.3217 22.063 33.6133 21.9567 33.8337 21.7545C34.054 21.5523 34.1851 21.2709 34.1979 20.9721C34.2146 20.5844 34.1526 20.1973 34.0158 19.8341C33.8789 19.471 33.6699 19.1393 33.4015 18.859C33.133 18.5787 32.8107 18.3557 32.4537 18.2033C32.0968 18.0509 31.7128 17.9724 31.3247 17.9723H30.6694V17.2958C30.6694 16.9967 30.5506 16.7099 30.3392 16.4985C30.1277 16.287 29.8409 16.1682 29.5419 16.1682C29.2428 16.1682 28.956 16.287 28.7446 16.4985C28.5331 16.7099 28.4143 16.9967 28.4143 17.2958V17.9751C27.4081 18.005 26.454 18.4296 25.7582 19.157C25.0624 19.8845 24.6806 20.8564 24.6954 21.863C24.7102 22.8695 25.1204 23.8299 25.8373 24.5365C26.5543 25.2432 27.5204 25.6395 28.5271 25.6397Z" fill="white"/>
</svg>
