<svg width="59" height="59" viewBox="0 0 59 59" fill="none" xmlns="http://www.w3.org/2000/svg">
<path d="M33.1433 50.6741H27.3977C27.0987 50.6741 26.8119 50.7929 26.6004 51.0043C26.3889 51.2158 26.2701 51.5026 26.2701 51.8016C26.2701 52.1007 26.3889 52.3875 26.6004 52.5989C26.8119 52.8104 27.0987 52.9292 27.3977 52.9292H33.1433C33.4424 52.9292 33.7292 52.8104 33.9406 52.5989C34.1521 52.3875 34.2709 52.1007 34.2709 51.8016C34.2709 51.5026 34.1521 51.2158 33.9406 51.0043C33.7292 50.7929 33.4424 50.6741 33.1433 50.6741Z" fill="#ff6400"/>
<path d="M53.4508 19.0999C51.1773 19.0999 49.2121 19.7361 47.7679 20.9397C47.6347 21.0508 47.4987 21.1738 47.362 21.3081V3.9905C47.3597 3.21367 47.0501 2.46931 46.5008 1.92C45.9515 1.3707 45.2071 1.0611 44.4303 1.05884H17.3688C16.5919 1.0611 15.8476 1.3707 15.2983 1.92C14.749 2.46931 14.4394 3.21367 14.4371 3.9905V6.98982L14.2974 6.85012C13.4092 5.96194 12.2046 5.46297 10.9485 5.46297C9.69247 5.46297 8.48784 5.96194 7.59967 6.85012C6.7115 7.73829 6.21252 8.94292 6.21252 10.199C6.21252 11.4551 6.7115 12.6597 7.59967 13.5478L12.4791 18.4273C11.6893 18.6576 10.9732 19.0896 10.4011 19.6807C9.82897 20.2719 9.42065 21.0018 9.21631 21.7987C9.01197 22.5955 9.01865 23.4319 9.23568 24.2254C9.45272 25.0189 9.87263 25.7422 10.4541 26.3242L13.2297 29.0998C12.3484 29.207 11.5151 29.5599 10.8247 30.118C10.1343 30.6762 9.61478 31.4172 9.32537 32.2565C9.03595 33.0958 8.98832 33.9995 9.1879 34.8646C9.38748 35.7296 9.82624 36.5211 10.4541 37.1488L12.3274 39.0225C11.4462 39.1297 10.6128 39.4825 9.92241 40.0407C9.23205 40.5989 8.71251 41.3399 8.42309 42.1792C8.13368 43.0184 8.08604 43.9222 8.28562 44.7872C8.4852 45.6523 8.92396 46.4438 9.55182 47.0715L14.4371 51.9571V54.5054C14.438 55.2826 14.7471 56.0278 15.2967 56.5774C15.8463 57.127 16.5915 57.4362 17.3688 57.437H39.018C39.317 57.437 39.6038 57.3182 39.8153 57.1068C40.0268 56.8953 40.1456 56.6085 40.1456 56.3095V45.4849C40.1478 44.54 40.3689 43.6085 40.7914 42.7634C41.214 41.9183 41.8266 41.1825 42.5811 40.6138L46.9109 37.3664C47.0503 37.2607 47.1635 37.1244 47.2417 36.968C47.3199 36.8116 47.3611 36.6392 47.362 36.4643V27.4438C47.362 22.9531 50.1031 21.7006 52.3232 21.4226V56.3095C52.3232 56.6085 52.442 56.8953 52.6535 57.1068C52.865 57.3182 53.1518 57.437 53.4508 57.437C53.7499 57.437 54.0367 57.3182 54.2481 57.1068C54.4596 56.8953 54.5784 56.6085 54.5784 56.3095V20.2274C54.5784 19.9284 54.4596 19.6416 54.2481 19.4301C54.0367 19.2187 53.7499 19.0999 53.4508 19.0999V19.0999ZM17.3688 3.31397H44.4303C44.6097 3.31414 44.7816 3.38548 44.9085 3.51232C45.0353 3.63915 45.1067 3.81113 45.1068 3.9905V7.36823H16.6922V3.9905C16.6924 3.81113 16.7637 3.63915 16.8906 3.51232C17.0174 3.38548 17.1894 3.31414 17.3688 3.31397ZM8.46722 10.1989C8.44467 8.01455 11.1746 6.88552 12.7028 8.44449L14.4371 10.1789V17.1963L9.19393 11.9531C8.96282 11.7233 8.77958 11.4499 8.65484 11.1488C8.5301 10.8477 8.46633 10.5248 8.46722 10.1989V10.1989ZM12.0485 21.2215C12.9719 20.2591 14.6333 20.2591 15.5567 21.2215L20.6595 26.3243C22.9003 28.7308 19.5486 32.0741 17.1513 29.8325L12.0485 24.7297C11.584 24.2641 11.3232 23.6332 11.3232 22.9756C11.3232 22.3179 11.584 21.6871 12.0485 21.2215V21.2215ZM22.2541 24.7297L21.0285 23.504C21.2617 21.2622 22.2683 19.1716 23.8753 17.5912C25.4823 16.0108 27.5894 15.0393 29.8348 14.8436C32.0802 14.6478 34.3237 15.2401 36.1799 16.5185C38.0361 17.797 39.3893 19.6819 40.0069 21.8496C40.6245 24.0172 40.4681 26.3322 39.5644 28.3971C38.6608 30.4619 37.0664 32.1476 35.055 33.1648C33.0437 34.1819 30.7409 34.4669 28.5423 33.9708C26.3437 33.4748 24.3864 32.2286 23.0066 30.4464C23.5265 29.5432 23.7346 28.4939 23.5986 27.4606C23.4625 26.4273 22.99 25.4676 22.2541 24.7297V24.7297ZM12.0485 32.0461C12.9719 31.0837 14.6333 31.0837 15.5567 32.0461L20.6595 37.1489C22.9003 39.5555 19.5486 42.8987 17.1513 40.6571L12.0485 35.5543C11.584 35.0887 11.3232 34.4579 11.3232 33.8002C11.3232 33.1425 11.584 32.5117 12.0485 32.0461V32.0461ZM11.1464 41.9687C12.0699 41.0063 13.7312 41.0063 14.6546 41.9687L19.7574 47.0715C21.9982 49.478 18.6465 52.8212 16.2492 50.5796L11.1464 45.4768C10.6819 45.0112 10.4211 44.3804 10.4211 43.7228C10.4211 43.0651 10.6819 42.4343 11.1464 41.9687V41.9687ZM16.6922 54.5054V53.3778C17.1185 53.5 17.5598 53.562 18.0032 53.5619C18.6592 53.5622 19.3081 53.426 19.9086 53.1621C20.5091 52.8982 21.0482 52.5123 21.4916 52.029C21.9351 51.5456 22.2731 50.9753 22.4844 50.3543C22.6956 49.7333 22.7754 49.0751 22.7187 48.4216H37.8904V55.1819H17.3688C17.1894 55.1817 17.0174 55.1104 16.8906 54.9836C16.7637 54.8567 16.6924 54.6847 16.6922 54.5054ZM41.228 38.8097C40.194 39.589 39.3546 40.5973 38.7755 41.7554C38.1964 42.9135 37.8935 44.19 37.8904 45.4849V46.1659H21.9209C21.7534 45.9188 21.5629 45.6881 21.352 45.4768L19.4784 43.6033C20.3597 43.496 21.1931 43.1432 21.8835 42.585C22.5738 42.0269 23.0934 41.2859 23.3828 40.4466C23.6722 39.6073 23.7198 38.7036 23.5203 37.8385C23.3207 36.9735 22.8819 36.1819 22.2541 35.5543L19.4784 32.7787C20.1722 32.6962 20.8387 32.4595 21.4291 32.086C23.1333 34.1636 25.4881 35.6061 28.1131 36.1805C30.7381 36.7549 33.4801 36.4276 35.8962 35.2517C38.3123 34.0757 40.2615 32.1196 41.4289 29.6993C42.5963 27.2791 42.9139 24.536 42.3302 21.913C41.7466 19.29 40.2958 16.9404 38.2122 15.2436C36.1286 13.5467 33.5339 12.6018 30.8471 12.5613C28.1603 12.5208 25.5383 13.3872 23.4045 15.0205C21.2708 16.6538 19.7499 18.9587 19.0875 21.5629C19.0875 21.5629 16.8521 19.3479 16.6922 19.2239V9.62336H45.1068V35.9006L41.228 38.8097Z" fill="#ff6400"/>
<path d="M28.9665 25.6397H30.8833C31.307 25.6547 31.7083 25.8335 32.0027 26.1385C32.2971 26.4434 32.4617 26.8508 32.4617 27.2747C32.4617 27.6986 32.2971 28.106 32.0027 28.411C31.7083 28.716 31.307 28.8948 30.8833 28.9097H28.0408C27.647 28.9187 27.3643 28.5362 27.422 28.1602C27.4274 27.8611 27.3137 27.5722 27.106 27.357C26.8984 27.1417 26.6137 27.0178 26.3147 27.0124C26.0156 27.0071 25.7267 27.1208 25.5114 27.3284C25.2962 27.5361 25.1723 27.8208 25.1669 28.1198L25.1648 28.2366C25.1579 28.6187 25.2272 28.9983 25.3686 29.3532C25.5101 29.7082 25.7208 30.0314 25.9886 30.304C26.2563 30.5766 26.5757 30.7932 26.9281 30.9409C27.2804 31.0887 27.6587 31.1648 28.0408 31.1648H28.8537V31.8414C28.8537 32.1404 28.9725 32.4272 29.1839 32.6387C29.3954 32.8501 29.6822 32.9689 29.9813 32.9689C30.2803 32.9689 30.5671 32.8501 30.7786 32.6387C30.99 32.4272 31.1088 32.1404 31.1088 31.8414V31.1577C32.1089 31.0848 33.0423 30.6288 33.7144 29.8846C34.3864 29.1404 34.7453 28.1656 34.7163 27.1632C34.6872 26.1609 34.2724 25.2085 33.5583 24.5045C32.8442 23.8006 31.8859 23.3994 30.8833 23.3846H28.9665C28.5478 23.3846 28.1463 23.2183 27.8502 22.9223C27.5542 22.6262 27.3879 22.2247 27.3879 21.806C27.3879 21.3874 27.5542 20.9858 27.8502 20.6898C28.1463 20.3938 28.5478 20.2274 28.9665 20.2274H31.764C32.1612 20.2606 32.3679 20.4765 32.3842 20.8751C32.3778 21.0231 32.4007 21.1708 32.4514 21.3099C32.5021 21.449 32.5798 21.5768 32.6799 21.6859C32.8821 21.9063 33.1635 22.0373 33.4623 22.0501C33.761 22.063 34.0527 21.9567 34.2731 21.7545C34.4934 21.5523 34.6244 21.2709 34.6373 20.9721C34.654 20.5844 34.592 20.1973 34.4551 19.8341C34.3183 19.471 34.1093 19.1393 33.8409 18.859C33.5724 18.5787 33.25 18.3557 32.8931 18.2033C32.5362 18.0509 32.1521 17.9724 31.764 17.9723H31.1088V17.2958C31.1088 16.9967 30.99 16.7099 30.7786 16.4985C30.5671 16.287 30.2803 16.1682 29.9813 16.1682C29.6822 16.1682 29.3954 16.287 29.1839 16.4985C28.9725 16.7099 28.8537 16.9967 28.8537 17.2958V17.9751C27.8475 18.005 26.8934 18.4296 26.1976 19.157C25.5017 19.8845 25.12 20.8564 25.1348 21.863C25.1496 22.8695 25.5598 23.8299 26.2767 24.5365C26.9937 25.2432 27.9598 25.6395 28.9665 25.6397Z" fill="#ff6400"/>
</svg>
