<svg width="20" height="32" viewBox="0 0 20 32" fill="none" xmlns="http://www.w3.org/2000/svg">
<path d="M10.3906 12.0303C10.3013 11.0749 10.3671 8.4726 12.8647 4.84645C13.0527 4.57316 13.0191 4.2046 12.7848 3.9703C11.7696 2.95513 11.1406 2.31397 10.6995 1.86483C10.1167 1.27131 9.85081 1.00071 9.46279 0.648228C9.2036 0.415303 8.81152 0.411934 8.54972 0.638878C4.20114 4.42281 -0.629507 12.2404 0.0680305 21.8218V21.8225C0.478949 27.4466 4.58243 31.5294 9.82531 31.5294C15.2058 31.5294 19.5833 27.1526 19.5833 21.7721C19.5833 16.581 15.5093 12.3237 10.3906 12.0303ZM9.82531 30.1544C5.32369 30.1544 1.7962 26.6081 1.43904 21.7218V21.7224C0.65488 10.946 7.05922 3.94947 8.99412 2.09713C9.18346 2.2831 9.39967 2.50331 9.71792 2.8276C10.0999 3.217 10.6229 3.7494 11.4138 4.54298C8.3852 9.2098 8.95658 12.5338 9.20697 13.0098C9.32584 13.2361 9.57018 13.3892 9.82531 13.3892C14.4479 13.3892 18.2083 17.1496 18.2083 21.7721C18.2083 26.3939 14.4479 30.1544 9.82531 30.1544Z" fill="#E77026"/>
</svg>
