<svg width="70" height="30" viewBox="0 0 70 30" fill="none" xmlns="http://www.w3.org/2000/svg">
<path d="M40.1671 1.62595C40.1671 1.88728 40.1041 2.13228 39.9781 2.36095C39.8568 2.58961 39.6631 2.77395 39.3971 2.91395C39.1358 3.05395 38.8045 3.12394 38.4031 3.12394H37.5841V4.99995H36.6041V0.113945H38.4031C38.7811 0.113945 39.1031 0.179278 39.3691 0.309945C39.6351 0.440612 39.8335 0.620278 39.9641 0.848945C40.0995 1.07761 40.1671 1.33661 40.1671 1.62595ZM38.3611 2.33294C38.6318 2.33294 38.8325 2.27228 38.9631 2.15095C39.0938 2.02495 39.1591 1.84995 39.1591 1.62595C39.1591 1.14995 38.8931 0.911945 38.3611 0.911945H37.5841V2.33294H38.3611Z" fill="white"/>
<path d="M43.1309 5.04894C42.6736 5.04894 42.2536 4.94161 41.8709 4.72695C41.4882 4.51228 41.1849 4.21595 40.9609 3.83795C40.7369 3.45528 40.6249 3.02361 40.6249 2.54294C40.6249 2.06694 40.7369 1.63994 40.9609 1.26194C41.1849 0.879278 41.4882 0.580612 41.8709 0.365945C42.2536 0.151278 42.6736 0.0439453 43.1309 0.0439453C43.5929 0.0439453 44.0129 0.151278 44.3909 0.365945C44.7736 0.580612 45.0746 0.879278 45.2939 1.26194C45.5179 1.63994 45.6299 2.06694 45.6299 2.54294C45.6299 3.02361 45.5179 3.45528 45.2939 3.83795C45.0746 4.21595 44.7736 4.51228 44.3909 4.72695C44.0082 4.94161 43.5882 5.04894 43.1309 5.04894ZM43.1309 4.17394C43.4249 4.17394 43.6839 4.10861 43.9079 3.97794C44.1319 3.84261 44.3069 3.65128 44.4329 3.40395C44.5589 3.15661 44.6219 2.86961 44.6219 2.54294C44.6219 2.21628 44.5589 1.93161 44.4329 1.68894C44.3069 1.44161 44.1319 1.25261 43.9079 1.12194C43.6839 0.991278 43.4249 0.925945 43.1309 0.925945C42.8369 0.925945 42.5756 0.991278 42.3469 1.12194C42.1229 1.25261 41.9479 1.44161 41.8219 1.68894C41.6959 1.93161 41.6329 2.21628 41.6329 2.54294C41.6329 2.86961 41.6959 3.15661 41.8219 3.40395C41.9479 3.65128 42.1229 3.84261 42.3469 3.97794C42.5756 4.10861 42.8369 4.17394 43.1309 4.17394Z" fill="white"/>
<path d="M52.89 0.113945L51.525 4.99995H50.37L49.453 1.52095L48.494 4.99995L47.346 5.00695L46.03 0.113945H47.08L47.941 3.90795L48.935 0.113945H50.027L50.965 3.88695L51.833 0.113945H52.89Z" fill="white"/>
<path d="M54.5099 0.904945V2.12994H56.1549V2.90694H54.5099V4.20194H56.3649V4.99995H53.5299V0.106945H56.3649V0.904945H54.5099Z" fill="white"/>
<path d="M59.7755 4.99995L58.6975 3.09594H58.2355V4.99995H57.2555V0.113945H59.0895C59.4675 0.113945 59.7895 0.181612 60.0555 0.316945C60.3215 0.447612 60.5198 0.627278 60.6505 0.855945C60.7858 1.07994 60.8535 1.33195 60.8535 1.61195C60.8535 1.93395 60.7602 2.22561 60.5735 2.48695C60.3868 2.74361 60.1092 2.92095 59.7405 3.01895L60.9095 4.99995H59.7755ZM58.2355 2.36095H59.0545C59.3205 2.36095 59.5188 2.29795 59.6495 2.17195C59.7802 2.04128 59.8455 1.86161 59.8455 1.63295C59.8455 1.40895 59.7802 1.23628 59.6495 1.11494C59.5188 0.988945 59.3205 0.925945 59.0545 0.925945H58.2355V2.36095Z" fill="white"/>
<path d="M62.7199 0.904945V2.12994H64.3649V2.90694H62.7199V4.20194H64.5749V4.99995H61.7399V0.106945H64.5749V0.904945H62.7199Z" fill="white"/>
<path d="M67.1735 0.113945C67.6868 0.113945 68.1371 0.214279 68.5245 0.414945C68.9165 0.615612 69.2175 0.902612 69.4275 1.27595C69.6421 1.64461 69.7495 2.07394 69.7495 2.56394C69.7495 3.05394 69.6421 3.48328 69.4275 3.85195C69.2175 4.21595 68.9165 4.49828 68.5245 4.69895C68.1371 4.89961 67.6868 4.99995 67.1735 4.99995H65.4655V0.113945H67.1735ZM67.1385 4.16694C67.6518 4.16694 68.0485 4.02694 68.3285 3.74694C68.6085 3.46694 68.7485 3.07261 68.7485 2.56394C68.7485 2.05528 68.6085 1.65861 68.3285 1.37395C68.0485 1.08461 67.6518 0.939945 67.1385 0.939945H66.4455V4.16694H67.1385Z" fill="white"/>
<path d="M66.035 10.1949C66.2317 10.2315 66.3984 10.3315 66.535 10.4949C66.6717 10.6582 66.74 10.8482 66.74 11.0649C66.74 11.2415 66.695 11.4015 66.605 11.5449C66.5184 11.6849 66.39 11.7966 66.22 11.8799C66.05 11.9599 65.8467 11.9999 65.61 11.9999H64.4V8.50488H65.575C65.9284 8.50488 66.1967 8.58655 66.38 8.74988C66.5667 8.91322 66.66 9.12488 66.66 9.38488C66.66 9.60155 66.6017 9.77822 66.485 9.91488C66.3684 10.0482 66.2184 10.1415 66.035 10.1949ZM64.75 10.0499H65.565C65.8017 10.0499 65.9834 9.99488 66.11 9.88488C66.24 9.77155 66.305 9.61655 66.305 9.41988C66.305 9.22655 66.24 9.07488 66.11 8.96488C65.9834 8.85488 65.7967 8.79988 65.55 8.79988H64.75V10.0499ZM65.585 11.7049C65.8384 11.7049 66.035 11.6449 66.175 11.5249C66.3184 11.4049 66.39 11.2399 66.39 11.0299C66.39 10.8199 66.315 10.6532 66.165 10.5299C66.0184 10.4032 65.82 10.3399 65.57 10.3399H64.75V11.7049H65.585Z" fill="white" fill-opacity="0.8"/>
<path d="M69.6934 8.50488L68.5734 10.6399V11.9999H68.2234V10.6399L67.0934 8.50488H67.4884L68.3984 10.3199L69.3034 8.50488H69.6934Z" fill="white" fill-opacity="0.8"/>
<path d="M37.9507 16.0304C37.6471 16.9412 37.1614 17.5484 36.4934 17.9734C35.7648 18.3985 34.9754 18.6414 34.0039 18.6414C32.7894 18.6414 31.8179 18.277 31.0892 17.4877C30.2999 16.6983 29.9355 15.7268 29.9355 14.5123C29.9355 13.2979 30.2999 12.3264 31.0892 11.537C31.8786 10.7476 32.8502 10.3833 34.1253 10.3833C35.279 10.3833 36.2505 10.7476 36.9792 11.4156C37.7079 12.1442 38.0722 13.055 38.0722 14.148C38.0722 14.5123 38.0115 14.8159 37.9507 15.1803H32.1822C31.9393 15.1803 31.8786 15.3017 31.8786 15.4839C31.8786 15.8482 32.1215 16.2125 32.5466 16.5161C32.9716 16.8197 33.5181 16.9412 34.0646 16.9412C35.0968 16.9412 35.7648 16.6376 36.0684 16.0304H37.9507ZM34.0646 12.0228C33.4574 12.0228 32.9716 12.1442 32.5466 12.4478C32.1215 12.7514 31.8786 13.1765 31.7572 13.6622H35.8255C36.0077 13.6622 36.0684 13.6015 36.0684 13.4194C36.0684 13.055 35.8862 12.6907 35.5219 12.4478C35.1576 12.2049 34.6718 12.0228 34.0646 12.0228Z" fill="white"/>
<path d="M43.537 10.3833H44.4478V12.3264H43.537C42.8691 12.3264 42.3226 12.5085 41.9582 12.9336C41.5332 13.3586 41.351 13.9051 41.351 14.6338V18.6414H39.408V14.6338C39.408 13.1765 39.7723 12.1442 40.5009 11.4156C41.1689 10.7476 42.2011 10.3833 43.537 10.3833Z" fill="white"/>
<path d="M51.613 17.3662C51.4308 17.852 51.1879 18.1556 50.945 18.3378C50.7021 18.5199 50.3985 18.5807 49.9735 18.5807C49.5484 18.5807 49.2448 18.4592 49.002 18.277C48.7591 18.0949 48.5162 17.7913 48.334 17.3055L45.6623 10.3833H47.7875L49.8521 16.2732C49.8521 16.334 49.9128 16.3947 49.9735 16.3947C50.0342 16.3947 50.0949 16.334 50.0949 16.2732L52.1595 10.3833H54.224L51.613 17.3662Z" fill="white"/>
<path d="M55.4385 10.3833H57.3816V18.6414H55.4385V10.3833Z" fill="white"/>
<path d="M37.7079 26.8995C37.465 27.7496 36.9793 28.4176 36.2506 28.7819C35.5827 29.2069 34.7326 29.3891 33.8218 29.3891C32.6681 29.3891 31.6965 29.0248 30.9679 28.2961C30.2392 27.5675 29.8749 26.5959 29.8749 25.4422C29.8749 24.2885 30.2392 23.317 31.0286 22.5883C31.818 21.8597 32.7895 21.4954 33.9432 21.4954C35.0969 21.4954 36.0077 21.8597 36.6757 22.5276C37.4043 23.1956 37.7687 24.1064 37.7687 25.1386C37.7687 25.503 37.7079 25.8066 37.6472 26.1102H32.1216C31.9394 26.1102 31.818 26.2316 31.818 26.4138C31.818 26.7781 32.0001 27.1424 32.4252 27.3853C32.8502 27.6889 33.336 27.8104 33.9432 27.8104C34.9755 27.8104 35.5827 27.5068 35.8863 26.8995H37.7079ZM33.9432 23.0134C33.336 23.0134 32.8502 23.1348 32.4859 23.4384C32.1216 23.742 31.818 24.1064 31.7573 24.6529H35.7041C35.8863 24.6529 35.947 24.5921 35.947 24.41C35.947 24.0456 35.7649 23.742 35.4005 23.4384C35.0362 23.1348 34.5504 23.0134 33.9432 23.0134Z" fill="white"/>
<path d="M39.1042 25.2598C39.1042 24.1061 39.4686 23.0738 40.1365 22.4059C40.8044 21.7379 41.7153 21.4343 42.8082 21.4343C43.9012 21.4343 44.812 21.7379 45.48 22.4059C46.1479 23.0738 46.5122 24.1061 46.5122 25.2598V29.3888H44.6299V25.2598C44.6299 24.6525 44.4477 24.1668 44.1441 23.8632C43.7798 23.5596 43.3547 23.3774 42.8082 23.3774C42.2617 23.3774 41.8367 23.5596 41.4724 23.8632C41.108 24.1668 40.9866 24.6525 40.9866 25.2598V29.3888H39.1042V25.2598Z" fill="white"/>
<path d="M51.3701 29.3888C50.3378 29.3888 49.5484 29.1459 48.8805 28.7209C48.2126 28.2958 47.8482 27.6279 47.6661 26.8385H49.6092C49.852 27.5064 50.4592 27.81 51.4915 27.81C51.9773 27.81 52.3416 27.7493 52.5845 27.5672C52.8274 27.4457 53.0095 27.2028 53.0095 26.8992C53.0095 26.4742 52.6452 26.2313 51.9773 26.1706L50.2771 26.1099C49.6092 26.0491 49.0019 25.8062 48.5769 25.4419C48.1518 25.0776 47.909 24.5311 47.909 23.9239C47.909 23.1345 48.2126 22.5273 48.8198 22.1023C49.427 21.6772 50.2164 21.4343 51.1879 21.4343C52.1594 21.4343 52.9488 21.6772 53.6167 22.1023C54.2847 22.5273 54.649 23.1345 54.8312 23.9239H52.8881C52.7667 23.6203 52.5845 23.3774 52.2809 23.256C51.9773 23.0738 51.6737 23.0131 51.2486 23.0131C50.2771 23.0131 49.7913 23.256 49.7913 23.8025C49.7913 24.2275 50.0949 24.4704 50.7629 24.5311L52.4023 24.6525C54.0418 24.774 54.8919 25.5026 54.8919 26.8385C54.8919 27.6886 54.5883 28.2958 53.9204 28.7209C53.1917 29.2066 52.4023 29.3888 51.3701 29.3888Z" fill="white"/>
<path d="M63.9393 26.8995C63.6964 27.7496 63.2106 28.4176 62.482 28.7819C61.814 29.2069 60.964 29.3891 60.0531 29.3891C58.8994 29.3891 57.9279 29.0248 57.1992 28.2961C56.4706 27.5675 56.1063 26.5959 56.1063 25.4422C56.1063 24.2885 56.4706 23.317 57.26 22.5883C58.0493 21.8597 59.0209 21.4954 60.1746 21.4954C61.3283 21.4954 62.2391 21.8597 62.907 22.5276C63.6357 23.1956 64 24.1064 64 25.1386C64 25.503 63.9393 25.8066 63.8786 26.1102H58.3529C58.1708 26.1102 58.0493 26.2316 58.0493 26.4138C58.0493 26.7781 58.2315 27.1424 58.6565 27.3853C59.0816 27.6889 59.5674 27.8104 60.1746 27.8104C61.2068 27.8104 61.814 27.5068 62.1177 26.8995H63.9393ZM60.2353 23.0134C59.6281 23.0134 59.1423 23.1348 58.778 23.4384C58.4137 23.742 58.1101 24.1064 58.0493 24.6529H61.9962C62.1784 24.6529 62.2391 24.5921 62.2391 24.41C62.2391 24.0456 62.0569 23.742 61.6926 23.4384C61.2676 23.1348 60.7818 23.0134 60.2353 23.0134Z" fill="white"/>
<path d="M3.76471 9.59394C3.76471 12.8122 6.37572 15.4232 9.59394 15.4232H19.37V19.1879H9.59394C4.3112 19.1272 0 14.8767 0 9.59394C0 6.92221 1.09298 4.55408 2.79317 2.85389C4.55408 1.09298 6.92221 0 9.59394 0H19.37V3.76471H9.59394C6.37572 3.76471 3.76471 6.37572 3.76471 9.59394Z" fill="white"/>
<path d="M25.26 19.9164C25.26 23.1347 22.649 25.7457 19.4308 25.7457H9.65466V29.5104H19.4308C24.7135 29.5104 29.0247 25.1992 29.0247 19.9164C29.0247 17.2447 27.9317 14.8766 26.2315 13.1764C24.4706 11.4155 22.1025 10.3225 19.4308 10.3225H9.65466V14.0872H19.4308C22.649 14.0872 25.26 16.6982 25.26 19.9164Z" fill="white"/>
<path d="M16.3947 22.4058C16.3947 23.4381 15.5446 24.2881 14.5123 24.2881C13.4801 24.2881 12.63 23.4381 12.63 22.4058C12.63 21.3735 13.4801 20.5234 14.5123 20.5234C15.5446 20.5234 16.3947 21.3735 16.3947 22.4058Z" fill="white"/>
<path d="M16.3947 7.10452C16.3947 8.13678 15.5446 8.98688 14.5123 8.98688C13.4801 8.98688 12.63 8.13678 12.63 7.10452C12.63 6.07226 13.4801 5.22217 14.5123 5.22217C15.5446 5.22217 16.3947 6.07226 16.3947 7.10452Z" fill="white"/>
</svg>
